<?xml version="1.0" encoding="utf-8"?>
<!-- Generator: Adobe Illustrator 16.0.3, SVG Export Plug-In . SVG Version: 6.00 Build 0)  -->
<!DOCTYPE svg PUBLIC "-//W3C//DTD SVG 1.1//EN" "http://www.w3.org/Graphics/SVG/1.1/DTD/svg11.dtd">
<svg version="1.1" id="Layer_1" xmlns="http://www.w3.org/2000/svg" xmlns:xlink="http://www.w3.org/1999/xlink" x="0px" y="0px"
	 width="100.8px" height="101px" viewBox="0 0 100.8 101" enable-background="new 0 0 100.8 101" xml:space="preserve">
<g>
	<path fill="#B34E26" d="M69.551,60.879c-0.26,0.146-3.998,4.505-3.998,4.505s-4.957-3.275-15.254-3.16
		c-10.297,0.115-14.624,3.049-14.624,3.049s-2.824-2.114-3.979-6.097c-1.155-3.981-2.144-15.602-1.558-15.754
		s42.413-0.52,42.413-0.52L69.551,60.879z"/>
	<path fill="#F4B67E" d="M59.67,80.261c0.461-0.347,10.479-7.913,10.479-7.913c4.59,1.516,5.916,14.535,6.383,20.606H65.563
		L59.67,80.261z"/>
	<path fill="#D9465F" d="M64.42,76.607l5.725-4.322c4.041,1.333,5.551,11.582,6.172,18.158H64.422L64.42,76.607L64.42,76.607z"/>
	<path fill="#F4B67E" d="M50.268,63.76h-4.84v3.058c0.004,1.898-0.313,1.504-2.088,2.491c0,0-1.711,1.402-2.232,1.568
		c2.152,6.926,3.707,15.83,7.912,22.077h1.248h1.25c4.205-6.247,5.76-15.151,7.912-22.077c-0.521-0.166-2.232-1.568-2.232-1.568
		c-1.773-0.987-2.092-0.593-2.088-2.491V63.76H50.268z"/>
	<path fill="#F4B67E" d="M41.131,80.261c-0.462-0.347-10.479-7.913-10.479-7.913c-4.591,1.516-5.915,14.535-6.383,20.606h10.969
		L41.131,80.261z"/>
	<path fill="#D9465F" d="M36.373,76.67l-5.723-4.322c-4.041,1.334-5.551,11.582-6.174,18.158h11.896L36.373,76.67L36.373,76.67z"/>
	<path fill="#E8566C" d="M47.27,76.134c-4.262-1.563-4.795-6.132-3.932-6.802c-1.898,0.865-7.536,1.725-10.804,2.479l-0.055,0.013
		l-0.055,0.014l-0.055,0.014l-0.054,0.013l-0.053,0.013l-0.053,0.014l-0.104,0.024l-0.051,0.014l-0.051,0.014l-0.051,0.012
		l-0.003,0.001l-0.047,0.013l-0.049,0.014l-0.049,0.013l-0.048,0.014l-0.047,0.013l-0.048,0.013l-0.125,0.034l-0.012,0.003
		l-0.045,0.013l-0.044,0.013l-0.043,0.014l-0.043,0.013l-0.042,0.012l-0.041,0.014l-0.034,0.011l-0.008,0.002l-0.04,0.013
		l-0.039,0.014l-0.038,0.012h-0.001l-0.038,0.013l-0.075,0.024l-0.026,0.009l-0.009,0.003l-0.105,0.036l-0.018,0.006l-0.017,0.006
		l-0.064,0.024l-0.032,0.011l-0.027,0.011l-0.08,0.032l-0.024,0.011c-0.029,0.015-0.06,0.025-0.087,0.038l-0.003,0.001L30.5,72.425
		c-0.03,0.016-0.059,0.027-0.085,0.041l-0.006,0.003c-0.023,0.015-0.047,0.024-0.067,0.037l-0.01,0.005l-0.004,0.004
		c-0.021,0.014-0.042,0.024-0.06,0.037l-0.004,0.003l-0.002,0.001c-0.021,0.016-0.038,0.028-0.054,0.043
		c0.463,1.013,1.078,4.472,1.725,8.741c-0.652,4.359-3.206,7.488-1.369,11.628h3h16.7h0.133h0.131h16.701h3
		c1.836-4.14-0.717-7.269-1.369-11.628c0.646-4.271,1.264-7.729,1.727-8.741c-0.018-0.016-0.033-0.026-0.055-0.043l-0.004-0.001
		l-0.004-0.003c-0.018-0.013-0.037-0.023-0.059-0.037l-0.004-0.004l-0.01-0.005c-0.021-0.013-0.045-0.022-0.068-0.037l-0.004-0.003
		c-0.027-0.014-0.057-0.025-0.084-0.041l-0.004-0.002l-0.004-0.001l-0.088-0.038l-0.023-0.011l-0.08-0.032l-0.027-0.011
		l-0.031-0.011l-0.064-0.024l-0.016-0.006l-0.02-0.006l-0.104-0.036l-0.012-0.003l-0.025-0.009l-0.074-0.024l-0.039-0.013h-0.002
		l-0.037-0.012l-0.039-0.014l-0.041-0.013l-0.008-0.002l-0.033-0.011l-0.041-0.014l-0.043-0.012l-0.043-0.013l-0.043-0.014
		l-0.043-0.013l-0.045-0.013l-0.012-0.003l-0.125-0.034l-0.047-0.013l-0.049-0.013l-0.049-0.014l-0.049-0.013l-0.049-0.014
		l-0.047-0.013l-0.002-0.001l-0.051-0.012l-0.051-0.014l-0.053-0.014l-0.104-0.024l-0.055-0.014l-0.053-0.013l-0.053-0.013
		l-0.055-0.014l-0.055-0.014l-0.057-0.013c-3.27-0.758-8.904-1.614-10.803-2.479c0.861,0.67,0.328,5.236-3.934,6.802v0.001
		l-1.814,5.989l-1.531,5.425L47.27,76.134L47.27,76.134z"/>
	<path fill="#F8CA97" d="M50.801,10.548l-0.063,0.003c-1.445-0.059-2.848-0.113-2.848-0.113l0.006,0.227
		c-0.186,0.008-0.299,0.012-0.299,0.012c-5.777,0.23-11.218,3.344-14.708,8.084c-3.491,4.744-3.956,10.721-3.681,16.442
		c0.708,14.704,8.943,31.214,21.589,31.336c12.646-0.122,20.883-16.632,21.592-31.336c0.273-5.724-0.189-11.698-3.682-16.442
		c-3.488-4.74-8.932-7.854-14.707-8.084c0,0-0.113-0.004-0.301-0.012l0.008-0.227c0,0-1.4,0.056-2.85,0.113L50.801,10.548z"/>
	<path fill="#CD5928" d="M60.641,16.246c-0.172,0.809-0.018,5.137,4.963,11.771c4.982,6.633,5.367,7.213,5.367,7.213
		s-0.521,10.215-0.463,9.695c0.059-0.521,2.76-10.252,2.76-10.252s1.279-5.561,0.01-10.754c-1.268-5.193-2.871-7.15-5.07-8.025
		C66.004,15.018,60.641,16.246,60.641,16.246z"/>
	<path fill="#CD5928" d="M30.2,31.296c-0.864,0.979-2.883,3.015-2.883,3.015l2.248,10.258L30.2,31.296z"/>
	<path fill="#CD5928" d="M70.778,39.044c0.23-3.791,2.443-16.06,1.492-18.422C67.883,9.751,49.651,3.525,45.377,14.706
		c-1.281,3.349,9.549,0.005,10.299,4.463C56.66,25.018,63.961,34.989,70.778,39.044z"/>
	<path fill="#CD5928" d="M61.621,17.499c4.863,4.574-10.229,14.771-30.106,19.292C21.4,27.059,34.668,0.294,56.709,10.193
		L61.621,17.499z"/>
	<path fill="#CD5928" d="M27.781,27.764c-1.267,8.873-3.284,36.454,8.603,38.58c-4.469-6.188-4.762-20.007-4.882-30.828
		c-0.083-7.438-0.463-11.875-0.546-17.832C29.27,19.885,28.155,25.146,27.781,27.764z"/>
	<path fill="#CD5928" d="M73.028,27.764c1.268,8.873,3.285,36.454-8.602,38.58c7.506-10.506,5.178-34.129,5.428-48.66
		C71.539,19.885,72.653,25.146,73.028,27.764z"/>
	<g>
		<circle fill="#3E3C3B" cx="41.867" cy="43.166" r="1.673"/>
		<path fill="#3E3C3B" d="M59.737,44.838c0.922,0,1.674-0.751,1.674-1.673s-0.752-1.673-1.674-1.673s-1.674,0.751-1.674,1.673
			S58.815,44.838,59.737,44.838z"/>
	</g>
	<path fill="#E5B27E" d="M47.6,51.702c-0.021-0.007-0.021-0.021-0.006-0.052c0-0.084,0.047-0.165,0.135-0.243
		c0.689-1.323,2.041-5.183,2.66-9.429c0.68,0.043-0.674,7.227-1.256,8.94c0.59-0.104,1.307-0.163,2.082-0.163
		c1.998,0,3.619,0.399,3.619,0.895c0,0.496-1.621,0.896-3.619,0.896C49.281,52.544,47.705,52.171,47.6,51.702z"/>
	<g>
		<path fill="#923F22" d="M54.744,39.135c-0.99,0.41,0.656-2.275,5.529-2.383c5.682-0.123,7.408,2.608,5.17,1.824
			C60.615,36.885,56.317,38.482,54.744,39.135z"/>
		<path fill="#923F22" d="M46.858,39.135c0.992,0.41-0.654-2.275-5.527-2.383c-5.681-0.123-7.409,2.608-5.171,1.824
			C40.987,36.885,45.287,38.482,46.858,39.135z"/>
	</g>
	<path fill="#D6825C" d="M45.223,55.573c2.139,1.433,9.225,1.452,11.395,0C58.119,61.525,43.719,61.525,45.223,55.573z"/>
	<path fill="#FFFFFF" d="M42.735,69.133l1.586-0.489l2.949,7.49c0,0-2.826,2.601-5.256,2.779c-2.43,0.181-2.799-4.848-1.76-7.155
		C41.291,69.45,42.735,69.133,42.735,69.133z"/>
	<path fill="#FFFFFF" d="M58.067,69.134l-1.586-0.49l-2.949,7.491c0,0,2.826,2.6,5.258,2.778c2.43,0.182,2.799-4.847,1.76-7.154
		C59.508,69.451,58.067,69.134,58.067,69.134z"/>
	<path fill="#CD5928" d="M50.041,22.945c0.809,0.173,8.016,0.846,8.016,0.846s-1.807,3.748-8.449,7.867
		c-6.641,4.119-14.132,5.637-13.935,5.425c0.196-0.213,6.261-2.511,9.406-5.251s4.414-5.165,4.414-5.165L50.041,22.945z"/>
	<path fill="#CD5928" d="M59.992,17.105c-0.781-0.269-7.307-3.405-7.307-3.405s-0.383,4.144,3.189,11.097
		c3.568,6.953,9.209,12.112,9.146,11.829c-0.061-0.284-4.072-5.378-5.354-9.347c-1.283-3.971-1.123-6.701-1.123-6.701L59.992,17.105
		z"/>
</g>
</svg>
