<?xml version="1.0" encoding="utf-8"?>
<!-- Generator: Adobe Illustrator 16.0.3, SVG Export Plug-In . SVG Version: 6.00 Build 0)  -->
<!DOCTYPE svg PUBLIC "-//W3C//DTD SVG 1.1//EN" "http://www.w3.org/Graphics/SVG/1.1/DTD/svg11.dtd">
<svg version="1.1" id="Layer_1" xmlns="http://www.w3.org/2000/svg" xmlns:xlink="http://www.w3.org/1999/xlink" x="0px" y="0px"
	 width="100.8px" height="101px" viewBox="0 0 100.8 101" enable-background="new 0 0 100.8 101" xml:space="preserve">
<g>
	<path fill="#A02126" d="M41.256,80.043c-0.462-0.347-10.774-5.201-10.774-5.201c-4.591,1.516-5.62,11.822-6.088,17.896h10.969
		L41.256,80.043z"/>
	<path fill="#A02126" d="M59.532,80.043c0.463-0.347,10.774-5.201,10.774-5.201c4.591,1.516,5.62,11.822,6.088,17.896H65.426
		L59.532,80.043z"/>
	<path fill="#F4B67E" d="M50.395,63.542h-4.841v3.057c0.003,1.898-0.313,1.506-2.088,2.491c0,0-1.711,1.402-2.232,1.569
		c2.151,6.925,3.707,15.83,7.912,22.077h1.249h1.248c4.205-6.247,5.761-15.152,7.912-22.077c-0.521-0.167-2.232-1.569-2.232-1.569
		c-1.771-0.985-2.09-0.593-2.087-2.491v-3.057H50.395z"/>
	<path fill="#841C22" d="M47.395,75.915c-4.26-1.563-4.794-6.131-3.931-6.801c-2.58,1.176-11.988,4.861-13.042,5.773
		c0.854,1.871,2.15,9.57,3.271,17.849h16.7h16.7c1.121-8.276,2.417-15.978,3.271-17.849c-1.054-0.912-10.463-4.6-13.043-5.773
		c0.863,0.67,0.33,5.236-3.931,6.801v0.001l-2.999,5.01L47.395,75.915L47.395,75.915z"/>
	<path fill="#F5C084" d="M63.346,41.434c-0.692,3.605,1.642,6.609,5.217,7.258c3.574,0.646,7.03-1.31,7.723-4.916
		c0.691-3.606-1.643-7.055-5.216-7.702C67.497,35.425,64.038,37.824,63.346,41.434z"/>
	<path fill="#F5C084" d="M38.411,41.434c0.692,3.605-1.642,6.609-5.216,7.258c-3.574,0.646-7.031-1.31-7.723-4.916
		c-0.692-3.606,1.642-7.055,5.216-7.702C34.262,35.424,37.719,37.824,38.411,41.434z"/>
	<path fill="#F8CA97" d="M68.712,18.542c-3.489-4.74-8.933-7.853-14.707-8.082c-0.002,0-0.114-0.005-0.301-0.013l0.008-0.227
		c0,0-1.4,0.057-2.849,0.113c-1.444-0.059-2.847-0.113-2.847-0.113l0.006,0.227c-0.187,0.008-0.299,0.013-0.299,0.013
		c-5.777,0.229-11.219,3.342-14.707,8.082c-3.493,4.745-3.957,10.722-3.682,16.442c0.708,14.705,2.021,31.173,21.59,31.336
		c19.627,0.164,20.759-16.735,21.466-31.336C72.667,29.261,72.204,23.286,68.712,18.542z"/>
	<path fill="#D6825C" d="M56.616,53.997c-1.021,5.749-10.287,5.749-11.312,0C48.069,54.633,53.237,54.636,56.616,53.997z"/>
	<path fill="#59351B" d="M30.414,39.436c0.261-5.42,0.329-15.223,5.074-15.223c3.516,0,4.471,0.811,15.146,0.811
		c9.448,0,12.193-1.078,15.729-1.078c3.789,0,4.729,5.105,4.804,12.188c0.014,1.459,0.113,2.919,0.196,4.375
		c0.051,0.854,0.111,1.708,0.154,2.563c0.018,0.349,0.107,1.277,0.557,1.188c0.505-0.097,0.563-1.976,0.612-2.376
		c0.361-2.826,0.457-5.723,0.455-8.564c-0.005-5.25,1.508-15.356-7.912-21.654C59.437,7.79,47.46,7.404,40.794,9.598
		c-4.645,1.528-9.096,5.51-10.751,10.146c-1.816,5.092-1.771,9.069-1.172,19.153c0.064,1.094,0.19,2.188,0.344,3.272
		c0.099,0.722,0.19,1.461,0.364,2.167c0.381,1.542,0.907,0.441,0.892-0.518C30.448,42.352,30.346,40.9,30.414,39.436z"/>
	<path fill="#402515" d="M41.89,54.257c-0.862,0.152-1.652,0.26-2.48,0.26c-2.924,0-5.4-1.121-7.04-3.076
		c-0.565-0.675-0.978-1.966-1.078-2.761c-0.094-0.746-0.497-2.615-0.562-3.254c-0.364-3.682-1.145-1.025-1.183,1.819
		c-0.01,0.653,0.18,1.364,0.339,2.077c-0.127,1.248-0.433,4.455-0.35,5.538c0.827,10.77,14.687,13.596,21.495,14.595
		c3.325-0.487,12.523-2.708,14.672-4.192c5.495-3.803,7.271-8.099,6.477-15.938c0.159-0.713,0.349-1.424,0.339-2.077
		c-0.038-2.847-0.818-5.501-1.183-1.819c-0.063,0.639-0.47,2.508-0.563,3.254c-0.101,0.795-0.512,2.086-1.078,2.761
		c-1.639,1.955-4.114,3.076-7.039,3.076c-0.829,0-1.618-0.106-2.479-0.26c0.376,0.647,0.581,1.349,0.581,2.076
		c0,2.735-2.882,5.05-6.849,5.816c-0.25-0.085-0.508-0.211-0.779-0.393c-0.966-0.638-1.646-1.507-1.991-2.013
		c-0.345,0.507-1.025,1.375-1.99,2.013c-0.301,0.197-0.585,0.332-0.855,0.416c-4.035-0.741-6.979-3.075-6.979-5.842
		C41.31,55.604,41.515,54.905,41.89,54.257z"/>
	<path fill="#5D341B" d="M51.032,49.725c-2.214-1.799-7.55,2.708-8.685,3.192c-3.375,1.442-5.453-1.441-5.453-1.441
		s0.433,2.049,2.049,3.866c2.891,3.251,8.987,2.383,12.089-0.403c3.104,2.786,9.199,3.654,12.091,0.403
		c1.614-1.817,2.049-3.866,2.049-3.866s-2.077,2.886-5.453,1.441C58.582,52.433,53.247,47.925,51.032,49.725z"/>
	<g>
		<path fill="#3E3C3B" d="M39.749,46.201c0.923,0,1.675-0.752,1.675-1.674s-0.752-1.674-1.675-1.674
			c-0.921,0-1.673,0.752-1.673,1.674S38.829,46.201,39.749,46.201z"/>
		<circle fill="#3E3C3B" cx="61.98" cy="44.527" r="1.673"/>
	</g>
	<g>
		<path fill="#59351B" d="M34.426,39.423c-0.557-0.918,2.337-1.401,5.276-1.426c4.932-0.042,7.606,2.326,5.235,2.261
			C43.166,40.209,34.589,39.693,34.426,39.423z"/>
		<path fill="#59351B" d="M67.308,39.292c0.544-0.925-2.354-1.37-5.295-1.356c-4.931,0.022-7.575,2.426-5.205,2.328
			C58.578,40.189,67.149,39.563,67.308,39.292z"/>
	</g>
	<path fill="#E5B27E" d="M48.702,48.654c-0.018-0.006-0.021-0.02-0.005-0.043c0-0.069,0.038-0.137,0.111-0.2
		c0.568-1.095,1.688-4.287,2.199-7.798c0.563,0.033-0.558,5.976-1.038,7.394c0.487-0.084,1.081-0.134,1.722-0.134
		c1.653,0,2.994,0.331,2.994,0.738c0,0.41-1.341,0.74-2.994,0.74C50.095,49.354,48.79,49.043,48.702,48.654z"/>
</g>
</svg>
