<?xml version="1.0" encoding="utf-8"?>
<!-- Generator: Adobe Illustrator 16.0.3, SVG Export Plug-In . SVG Version: 6.00 Build 0)  -->
<!DOCTYPE svg PUBLIC "-//W3C//DTD SVG 1.1//EN" "http://www.w3.org/Graphics/SVG/1.1/DTD/svg11.dtd">
<svg version="1.1" id="Layer_1" xmlns="http://www.w3.org/2000/svg" xmlns:xlink="http://www.w3.org/1999/xlink" x="0px" y="0px"
	 width="100.8px" height="101px" viewBox="0 0 100.8 101" enable-background="new 0 0 100.8 101" xml:space="preserve">
<g>
	<path fill="#453E48" d="M41.254,79.86c-0.46-0.348-10.773-5.201-10.773-5.201c-4.59,1.515-5.62,11.823-6.087,17.896h10.969
		L41.254,79.86z"/>
	<path fill="#453E48" d="M59.531,79.86c0.462-0.348,10.774-5.201,10.774-5.201c4.591,1.515,5.62,11.823,6.088,17.896h-10.97
		L59.531,79.86z"/>
	<path fill="#F4B67E" d="M50.394,63.36h-4.841v3.056c0.003,1.899-0.313,1.504-2.088,2.491c0,0-1.711,1.402-2.231,1.568
		c2.151,6.927,3.707,15.83,7.912,22.077h1.249h1.249c4.205-6.247,5.761-15.15,7.911-22.077c-0.521-0.166-2.23-1.568-2.23-1.568
		c-1.773-0.987-2.092-0.592-2.088-2.491V63.36H50.394z"/>
	<path fill="#4E4452" d="M50.394,80.004c-7.994-0.632-6.839-11.021-6.932-11.071c-2.58,1.179-11.987,4.862-13.042,5.774
		c0.854,1.871,2.15,9.571,3.271,17.848h16.701h16.701c1.121-8.274,2.416-15.977,3.271-17.848
		c-1.053-0.912-10.462-4.598-13.042-5.774C57.233,68.983,58.387,79.372,50.394,80.004z"/>
	<path fill="#F5C084" d="M63.346,41.807c-0.693,3.937,1.641,7.215,5.216,7.922c3.573,0.703,7.03-1.43,7.723-5.365
		c0.691-3.938-1.643-7.702-5.216-8.408C67.494,35.248,64.037,37.866,63.346,41.807z"/>
	<path fill="#F5C084" d="M38.409,41.807c0.693,3.937-1.642,7.215-5.216,7.922c-3.574,0.703-7.031-1.43-7.722-5.365
		c-0.693-3.938,1.642-7.702,5.215-8.408C34.261,35.248,37.719,37.866,38.409,41.807z"/>
	<path fill="#F8CA97" d="M68.711,18.357c-3.489-4.739-8.932-7.853-14.707-8.082c-0.002,0-0.114-0.004-0.302-0.012l0.009-0.227
		c0,0-1.4,0.055-2.849,0.113c-1.445-0.06-2.847-0.113-2.847-0.113l0.006,0.227c-0.187,0.008-0.299,0.012-0.299,0.012
		c-5.778,0.229-11.219,3.343-14.708,8.082c-3.493,4.746-3.956,10.722-3.682,16.443c0.208,4.324,0.974,11.305,1.188,15.631
		c5.554,20.771,35.503,21.111,40.679,0c0.216-4.326,0.979-11.307,1.188-15.631C72.666,29.079,72.203,23.104,68.711,18.357z"/>
	<path fill="#A95C40" d="M33.18,26.323c-0.276,0.598,1.311-5.401,4.79-5.505c3.642-0.108,26.28,1.269,27.438-0.246
		c3.836,4.854,6.638,24.104,6.854,24.062c0.51-0.099,0.567-1.985,0.62-2.39c0.365-2.84,0.464-5.751,0.462-8.609
		c-0.006-5.277,1.526-15.438-8.021-21.77c-5.872-3.895-18.013-4.282-24.77-2.077c-4.707,1.536-9.221,5.537-10.897,10.198
		c-1.842,5.117-1.795,9.117-1.188,19.255c0.063,1.1,0.193,2.2,0.348,3.291c0.102,0.726,0.195,1.468,0.371,2.179
		C30.146,48.572,30.236,30.885,33.18,26.323z"/>
	<path fill="#A95C40" d="M68.929,16.578c-0.739,7.398-10.331,13.128-17.455,13.128l2.077-1.962
		c-8.009,2.438-12.479,0.777-12.464,0.779c0.289,0.059,3.317-1.355,3.317-1.355c-4.551,0.139-9.151,0.204-12.676-3.098l5.089-9.051
		L68.929,16.578z"/>
	<g>
		<path fill="#3E3C3B" d="M39.93,45.036c0.921,0,1.672-0.752,1.672-1.675c0-0.922-0.751-1.672-1.672-1.672
			c-0.923,0-1.675,0.75-1.675,1.672C38.256,44.284,39.008,45.036,39.93,45.036z"/>
		<circle fill="#3E3C3B" cx="61.799" cy="43.363" r="1.673"/>
	</g>
	<path fill="#A95C40" d="M34.172,38.671c-0.611-0.882,2.244-1.544,5.179-1.751c4.918-0.35,7.736,1.848,5.365,1.93
		C42.945,38.911,34.351,38.93,34.172,38.671z"/>
	<path fill="#A95C40" d="M66.58,38.801c0.646-0.857-2.185-1.631-5.104-1.953c-4.901-0.539-7.804,1.547-5.438,1.721
		C57.804,38.698,66.391,39.052,66.58,38.801z"/>
	<path fill="#D6825C" d="M56.402,55.223c-1.021,5.749-10.288,5.749-11.311,0C47.855,55.858,53.023,55.862,56.402,55.223z"/>
	<path fill="#E5B27E" d="M47.142,51.841c-0.021-0.006-0.022-0.021-0.005-0.051c0-0.085,0.047-0.166,0.136-0.244
		c0.688-1.323,2.04-5.183,2.659-9.428c0.679,0.042-0.674,7.226-1.257,8.938c0.59-0.103,1.308-0.162,2.082-0.162
		c1.999,0,3.62,0.399,3.62,0.896s-1.621,0.896-3.62,0.896C48.825,52.686,47.248,52.311,47.142,51.841z"/>
</g>
</svg>
