<?xml version="1.0" encoding="utf-8"?>
<!-- Generator: Adobe Illustrator 16.0.3, SVG Export Plug-In . SVG Version: 6.00 Build 0)  -->
<!DOCTYPE svg PUBLIC "-//W3C//DTD SVG 1.1//EN" "http://www.w3.org/Graphics/SVG/1.1/DTD/svg11.dtd">
<svg version="1.1" id="Layer_1" xmlns="http://www.w3.org/2000/svg" xmlns:xlink="http://www.w3.org/1999/xlink" x="0px" y="0px"
	 width="100.8px" height="101px" viewBox="0 0 100.8 101" enable-background="new 0 0 100.8 101" xml:space="preserve">
<g>
	<path fill="#402515" d="M74.056,52.705c0,6.646,4.678,12.027,1.859,19.276c-4.392,11.301-14.287,8.825-21.615,8.825h-9.601
		c-7.531,0-16.427,0.904-19.609-9.987c-2.192-7.505,1.71-11.468,1.71-17.46l-0.338-16.934c0.576-22.448,8.661-25.952,24.007-25.952
		c18.055-2.424,22.941,7.049,24.006,25.952L74.056,52.705z"/>
	<path fill="#9C5639" d="M59.384,80.297c0.461-0.347,10.479-7.913,10.479-7.913c4.591,1.516,5.916,14.534,6.384,20.606h-10.97
		L59.384,80.297z"/>
	<path fill="#F4B67E" d="M49.982,63.796h-4.84v3.057c0.003,1.898-0.313,1.506-2.087,2.491c0,0-1.711,1.402-2.233,1.569
		c2.152,6.925,3.708,15.83,7.913,22.077h1.248h1.25c4.205-6.247,5.761-15.152,7.91-22.077c-0.521-0.167-2.229-1.569-2.229-1.569
		c-1.773-0.985-2.093-0.593-2.089-2.491v-3.057H49.982z"/>
	<path fill="#9C5639" d="M40.844,80.297c-0.462-0.347-10.479-7.913-10.479-7.913c-4.591,1.516-5.916,14.534-6.383,20.606h10.969
		L40.844,80.297z"/>
	<path fill="#ED8423" d="M46.984,76.169c-4.261-1.563-4.794-6.131-3.931-6.801c-1.899,0.865-7.537,1.725-10.805,2.479l-0.055,0.014
		l-0.054,0.013l-0.054,0.014L32.032,71.9l-0.053,0.013l-0.052,0.014l-0.104,0.024l-0.051,0.013l-0.05,0.015l-0.05,0.013h-0.002
		l-0.047,0.012l-0.05,0.014l-0.048,0.014l-0.048,0.013l-0.047,0.014l-0.047,0.013l-0.125,0.034l-0.013,0.003l-0.044,0.013
		l-0.044,0.013l-0.043,0.013l-0.043,0.014l-0.042,0.012l-0.042,0.013l-0.034,0.012l-0.007,0.002l-0.041,0.013l-0.04,0.012
		l-0.036,0.014h-0.002l-0.038,0.013l-0.075,0.024l-0.027,0.009l-0.009,0.003l-0.105,0.036l-0.018,0.006l-0.016,0.006l-0.065,0.024
		l-0.032,0.012l-0.028,0.011l-0.08,0.031l-0.025,0.011c-0.03,0.013-0.059,0.025-0.086,0.038l-0.004-0.005l-0.003,0.001
		c-0.029,0.014-0.058,0.027-0.084,0.041l-0.006,0.003c-0.024,0.013-0.048,0.025-0.068,0.037L30.05,72.54l-0.004,0.003
		c-0.021,0.014-0.042,0.025-0.061,0.038l-0.004,0.003l-0.002,0.001c-0.02,0.016-0.037,0.028-0.053,0.042
		c0.463,1.013,1.079,4.472,1.725,8.742c-0.653,4.358-3.207,7.488-1.37,11.628h3h16.7h0.131h0.133h16.699h3.002
		c1.837-4.14-0.717-7.27-1.37-11.628c0.646-4.271,1.264-7.729,1.727-8.742c-0.018-0.014-0.035-0.026-0.055-0.042l-0.002-0.001
		l-0.004-0.003c-0.019-0.013-0.039-0.024-0.062-0.038l-0.004-0.003l-0.008-0.005c-0.021-0.012-0.045-0.024-0.068-0.037l-0.006-0.003
		c-0.025-0.014-0.055-0.027-0.084-0.041l-0.004-0.001l-0.002-0.002l-0.088-0.038l-0.023-0.011l-0.082-0.031l-0.027-0.011
		l-0.03-0.013l-0.064-0.023l-0.016-0.006l-0.021-0.006l-0.104-0.036l-0.01-0.003l-0.027-0.01l-0.074-0.023l-0.039-0.014l0,0
		l-0.039-0.013l-0.039-0.012l-0.041-0.013l-0.006-0.002l-0.035-0.012l-0.041-0.013l-0.041-0.012l-0.043-0.014l-0.043-0.013
		l-0.045-0.013l-0.045-0.014l-0.012-0.003l-0.125-0.033l-0.047-0.013l-0.047-0.014l-0.05-0.013l-0.049-0.014l-0.049-0.014
		l-0.047-0.012h-0.002l-0.051-0.014l-0.052-0.014l-0.051-0.013l-0.104-0.024l-0.054-0.014l-0.055-0.014l-0.053-0.013l-0.055-0.014
		l-0.056-0.013l-0.055-0.014c-3.269-0.757-8.906-1.614-10.805-2.479c0.862,0.67,0.33,5.236-3.933,6.801v0.001l-2.999,5.01
		l-0.132-0.22l-0.131,0.22L46.984,76.169L46.984,76.169z"/>
	<g>
		<path fill="#F5C084" d="M35.754,39.932c0.803,3.606-0.792,6.61-3.524,7.258c-2.73,0.646-5.561-1.309-6.363-4.916
			c-0.802-3.605,0.761-7.056,3.491-7.701C32.089,33.924,34.951,36.325,35.754,39.932z"/>
		<path fill="#F5C084" d="M65.277,39.932c-0.803,3.606,0.793,6.61,3.523,7.258c2.729,0.646,5.561-1.309,6.363-4.916
			c0.803-3.605-0.761-7.056-3.49-7.701C68.943,33.924,66.079,36.325,65.277,39.932z"/>
	</g>
	<path fill="#F8CA97" d="M50.517,10.584l-0.063,0.003c-1.446-0.058-2.849-0.112-2.849-0.112l0.006,0.226
		c-0.186,0.008-0.299,0.013-0.299,0.013c-5.777,0.229-11.218,3.342-14.708,8.082c-3.492,4.745-3.956,10.721-3.681,16.443
		c0.708,14.703,8.943,31.213,21.59,31.335c12.646-0.122,20.883-16.632,21.59-31.335c0.275-5.723-0.188-11.698-3.682-16.443
		c-3.488-4.74-8.93-7.854-14.707-8.082c0,0-0.113-0.005-0.301-0.013l0.008-0.226c0,0-1.4,0.055-2.849,0.112L50.517,10.584z"/>
	<path fill="#402515" d="M59.503,16.282c-0.174,0.808-0.021,5.137,4.963,11.771c4.979,6.634,5.365,7.214,5.365,7.214
		s0.229,11.194,0.864,9.867c0.636-1.326,1.541-10.966,1.541-10.966s1.173-5.019-0.098-10.212s-2.871-7.15-5.072-8.025
		C64.866,15.053,59.503,16.282,59.503,16.282z"/>
	<path fill="#402515" d="M31.745,30.303c-0.864,0.98-3.678,1.086-3.678,1.086c0.123,0.907,1.333,14.57,2.469,13.604L31.745,30.303z"
		/>
	<path fill="#402515" d="M69.831,35.266c0.229-3.791,2.174-12.449,1.221-14.812c-2.75-6.813-7.785-9.571-16.238-10.417
		c-2.596-0.26-4.76-0.028-4.76-0.028C54.904,18.014,58.997,28.649,69.831,35.266z"/>
	<path fill="#402515" d="M61.681,18.341c-1.713,10.691-24.272,7.245-31.694,20.104c-8.27-12.504,4.395-38.117,26.436-28.219
		L61.681,18.341z"/>
	<g>
		<circle fill="#3E3C3B" cx="40.58" cy="42.783" r="1.673"/>
		<circle fill="#3E3C3B" cx="61.45" cy="42.783" r="1.673"/>
	</g>
	<path fill="#E5B27E" d="M47.814,51.318c-0.021-0.006-0.022-0.022-0.006-0.051c0-0.084,0.047-0.166,0.137-0.244
		c0.688-1.322,2.039-5.183,2.658-9.427c0.68,0.041-0.672,7.225-1.254,8.939c0.588-0.104,1.305-0.163,2.08-0.163
		c2,0,3.621,0.399,3.621,0.895c0,0.496-1.621,0.896-3.621,0.896C49.497,52.162,47.919,51.789,47.814,51.318z"/>
	<g>
		<path fill="#402515" d="M55.458,38.751c-0.99,0.411,0.655-2.274,5.528-2.381c5.681-0.124,7.408,2.608,5.171,1.823
			C61.329,36.501,57.031,38.1,55.458,38.751z"/>
		<path fill="#402515" d="M45.572,38.751c0.992,0.411-0.657-2.274-5.529-2.381c-5.682-0.124-7.409,2.608-5.171,1.823
			C39.7,36.501,43.999,38.1,45.572,38.751z"/>
	</g>
	<path fill="#D6825C" d="M56.198,55.414c-1.02,4.516-10.285,4.516-11.308,0C47.961,58.634,53.128,58.634,56.198,55.414z"/>
</g>
</svg>
