<?xml version="1.0" encoding="utf-8"?>
<!-- Generator: Adobe Illustrator 16.0.3, SVG Export Plug-In . SVG Version: 6.00 Build 0)  -->
<!DOCTYPE svg PUBLIC "-//W3C//DTD SVG 1.1//EN" "http://www.w3.org/Graphics/SVG/1.1/DTD/svg11.dtd">
<svg version="1.1" id="Layer_1" xmlns="http://www.w3.org/2000/svg" xmlns:xlink="http://www.w3.org/1999/xlink" x="0px" y="0px"
	 width="100.8px" height="101px" viewBox="0 0 100.8 101" enable-background="new 0 0 100.8 101" xml:space="preserve">
<g>
	<path fill="#62391D" d="M32.893,18.791c-1.229,1.935-4.127,8.785-4.856,10.672c-0.729,1.886-1.036,14.729,6.419,25.059
		c7.457,10.328,23.763,9.18,24.06,9.759c0.754,1.46,1.514-0.044,3.029,1.571c0,0,6.789-6.227,8.957-16.542
		c2.166-10.317-0.688-17.656-0.688-17.656L32.893,18.791z"/>
	<path fill="#EF9196" d="M58.647,63.741c-0.471,0.171-1.518,1.958-1.174,3.009s4.604,2.171,5.158,1.656
		C66.219,65.097,60.389,63.108,58.647,63.741z"/>
	<path fill="#F4B67E" d="M59.67,80.293c0.463-0.347,10.48-7.913,10.48-7.913c4.592,1.516,5.914,14.534,6.383,20.606H65.563
		L59.67,80.293z"/>
	<path fill="#F4B67E" d="M50.27,63.792h-4.842v3.057c0.006,3.623-9.626,3.953-12.894,4.996c1.185,6.372-0.864,9.179,16.828,19.855
		h1.25h1.248c8.576-3.118,15.09-6.94,16.729-19.779c-3.354-1.071-13.482-1.388-13.479-5.071v-3.058H50.27L50.27,63.792z"/>
	<path fill="#F4B67E" d="M37.788,82.436c-0.462-0.348-7.138-10.059-7.138-10.059c-4.591,1.516-5.914,14.535-6.383,20.607h10.97
		L37.788,82.436z"/>
	<path fill="#7D5F65" d="M32.542,71.842l-0.007,0.002l-0.056,0.014l-0.055,0.014l-0.055,0.013l-0.054,0.014l-0.054,0.013
		l-0.053,0.014l-0.104,0.024l-0.051,0.013l-0.051,0.015l-0.051,0.013H31.95L31.904,72l-0.051,0.014l-0.048,0.014l-0.048,0.013
		l-0.048,0.014l-0.048,0.013l-0.125,0.034l-0.012,0.003l-0.045,0.013l-0.044,0.013l-0.044,0.014l-0.043,0.013l-0.042,0.012
		l-0.041,0.014l-0.033,0.011l-0.008,0.002l-0.04,0.013l-0.039,0.012l-0.038,0.014h-0.001l-0.038,0.013l-0.075,0.024l-0.026,0.009
		l-0.009,0.003l-0.105,0.036l-0.018,0.006l-0.017,0.006l-0.064,0.024l-0.031,0.012l-0.027,0.01l-0.08,0.032l-0.023,0.011
		c-0.03,0.015-0.061,0.025-0.087,0.038l-0.004,0.002l-0.003,0.001c-0.03,0.016-0.059,0.027-0.085,0.041l-0.006,0.003
		c-0.023,0.014-0.047,0.025-0.067,0.037l-0.01,0.005l-0.004,0.003c-0.021,0.015-0.041,0.025-0.061,0.038l-0.004,0.003l-0.002,0.001
		c-0.021,0.017-0.038,0.028-0.055,0.042c0.464,1.014,1.079,4.473,1.726,8.742c-0.651,4.359-3.205,7.489-1.369,11.628h3h16.702h0.131
		h0.133h16.699h3.002c1.836-4.139-0.719-7.269-1.371-11.628c0.646-4.271,1.264-7.729,1.727-8.742
		c-0.018-0.014-0.033-0.025-0.053-0.042l-0.004-0.001l-0.004-0.003c-0.02-0.013-0.039-0.023-0.061-0.038l-0.004-0.003l-0.01-0.005
		c-0.021-0.012-0.043-0.023-0.068-0.037l-0.004-0.003c-0.025-0.014-0.055-0.026-0.084-0.041l-0.004-0.001l-0.004-0.002l-0.086-0.038
		l-0.025-0.011l-0.08-0.032l-0.027-0.01l-0.029-0.012l-0.064-0.024l-0.018-0.006l-0.02-0.006l-0.104-0.036l-0.01-0.003l-0.027-0.009
		l-0.074-0.024l-0.037-0.013h-0.002l-0.037-0.014l-0.039-0.012l-0.041-0.013l-0.006-0.002l-0.035-0.011l-0.041-0.014l-0.043-0.012
		l-0.043-0.013l-0.043-0.014l-0.043-0.013l-0.045-0.013l-0.012-0.003l-0.127-0.034l-0.047-0.013l-0.047-0.014l-0.049-0.013
		l-0.049-0.014L68.887,72l-0.047-0.012h-0.002l-0.051-0.013l-0.051-0.015l-0.053-0.013l-0.104-0.024l-0.053-0.014l-0.053-0.013
		l-0.055-0.014l-0.055-0.013l-0.055-0.014l-0.055-0.014l-0.008-0.001c-2.35,7.781-9.455,13.438-17.857,13.438
		C41.99,85.28,34.891,79.624,32.542,71.842z"/>
	<g>
		<path fill="#F5C084" d="M36.041,39.928c0.804,3.606-0.792,6.61-3.522,7.258c-2.729,0.646-5.563-1.309-6.362-4.916
			c-0.804-3.605,0.76-7.056,3.49-7.701C32.377,33.92,35.24,36.321,36.041,39.928z"/>
		<path fill="#F5C084" d="M65.565,39.928c-0.805,3.606,0.791,6.61,3.521,7.258c2.73,0.646,5.563-1.309,6.363-4.916
			c0.803-3.605-0.76-7.056-3.49-7.701C69.229,33.92,66.367,36.321,65.565,39.928z"/>
	</g>
	<path fill="#F8CA97" d="M50.803,10.581l-0.063,0.003c-1.445-0.058-2.848-0.112-2.848-0.112l0.006,0.226
		c-0.186,0.008-0.299,0.013-0.299,0.013c-5.777,0.229-11.219,3.342-14.708,8.082c-3.492,4.745-3.956,10.721-3.682,16.443
		c0.708,14.703,8.943,31.213,21.59,31.335c12.645-0.122,20.883-16.632,21.59-31.335c0.275-5.723-0.188-11.698-3.68-16.443
		c-3.49-4.74-8.932-7.854-14.709-8.082c0,0-0.113-0.005-0.299-0.013l0.006-0.226c0,0-1.398,0.055-2.848,0.112L50.803,10.581z"/>
	<path fill="#62391D" d="M59.789,16.278c-0.172,0.808-0.02,5.137,4.963,11.771s5.367,7.214,5.367,7.214s0.229,11.194,0.863,9.867
		c0.637-1.326,1.541-10.966,1.541-10.966s1.172-5.019-0.098-10.212c-1.271-5.193-2.873-7.15-5.072-8.025
		C65.155,15.049,59.789,16.278,59.789,16.278z"/>
	<path fill="#62391D" d="M32.033,30.299c-0.866,0.98-3.68,1.086-3.68,1.086c0.123,0.907,1.334,14.57,2.471,13.604L32.033,30.299z"/>
	<path fill="#62391D" d="M70.119,35.262c0.227-3.791,2.172-12.449,1.219-14.812c-2.75-6.813-7.785-9.571-16.238-10.417
		c-2.596-0.26-4.76-0.028-4.76-0.028C55.19,18.01,59.283,28.645,70.119,35.262z"/>
	<path fill="#62391D" d="M61.969,18.337c-1.715,10.691-24.272,7.245-31.694,20.104c-8.27-12.504,4.396-38.117,26.436-28.219
		L61.969,18.337z"/>
	<g>
		<circle fill="#3E3C3B" cx="41.867" cy="42.779" r="1.673"/>
		<circle fill="#3E3C3B" cx="60.739" cy="42.779" r="1.673"/>
	</g>
	<path fill="#E5B27E" d="M48.1,51.314c-0.02-0.006-0.021-0.022-0.006-0.051c0-0.084,0.049-0.166,0.137-0.244
		c0.688-1.322,2.041-5.183,2.658-9.427c0.682,0.041-0.672,7.225-1.254,8.939c0.588-0.104,1.307-0.163,2.08-0.163
		c2,0,3.621,0.399,3.621,0.895c0,0.496-1.621,0.896-3.621,0.896C49.783,52.158,48.207,51.785,48.1,51.314z"/>
	<g>
		<path fill="#402515" d="M55.246,38.748c-0.992,0.411,0.656-2.274,5.527-2.381c5.682-0.124,7.408,2.608,5.172,1.823
			C61.117,36.498,56.819,38.096,55.246,38.748z"/>
		<path fill="#402515" d="M47.36,38.748c0.99,0.411-0.654-2.274-5.529-2.381c-5.681-0.124-7.408,2.608-5.17,1.823
			C41.489,36.498,45.787,38.096,47.36,38.748z"/>
	</g>
	<path fill="#D6825C" d="M57.088,56.098c-1.102,3.536-11.09,3.536-12.191,0C48.207,58.619,53.778,58.619,57.088,56.098z"/>
	<path fill="#62391D" d="M53.594,73.843c-2.594,6.553-0.643,8.613-0.643,8.613l0.301-3.686c0,0,0.898,4.543,0.984,7.457
		c0.086,2.913-1.027,6.758-1.027,6.758s4.629-2.516,6.898-6.457c2.271-3.943,1.5-11.4,1.5-11.4s0.941,2.486,0.941,2.229
		c0-0.258,0.52-3.647,0.301-6.301c-0.104-1.28,0.145-2.853-0.682-4.039C58.352,61.519,54.512,71.525,53.594,73.843z"/>
</g>
</svg>
