<?xml version="1.0" encoding="utf-8"?>
<!-- Generator: Adobe Illustrator 16.0.3, SVG Export Plug-In . SVG Version: 6.00 Build 0)  -->
<!DOCTYPE svg PUBLIC "-//W3C//DTD SVG 1.1//EN" "http://www.w3.org/Graphics/SVG/1.1/DTD/svg11.dtd">
<svg version="1.1" id="Layer_1" xmlns="http://www.w3.org/2000/svg" xmlns:xlink="http://www.w3.org/1999/xlink" x="0px" y="0px"
	 width="100.8px" height="101px" viewBox="0 0 100.8 101" enable-background="new 0 0 100.8 101" xml:space="preserve">
<g>
	<path fill="#35343D" d="M41.254,84.833c-0.46-0.347-10.773-5.201-10.773-5.201c-4.591,1.516-5.621,11.822-6.087,17.896h10.968
		L41.254,84.833z"/>
	<path fill="#35343D" d="M59.531,84.833c0.463-0.347,10.774-5.201,10.774-5.201c4.591,1.516,5.621,11.822,6.088,17.896H65.425
		L59.531,84.833z"/>
	<path fill="#F4B67E" d="M50.394,68.332h-4.841v3.057c0.003,1.898-0.313,1.504-2.088,2.491c0,0-1.712,1.402-2.232,1.569
		c2.151,6.925,4.394,13.431,8.599,19.678h1.249h1.248c4.204-6.247,5.074-12.753,7.228-19.678c-0.521-0.167-2.232-1.569-2.232-1.569
		c-1.771-0.987-2.09-0.593-2.088-2.491v-3.057H50.394z"/>
	<path fill="#BED539" d="M50.393,84.976c-7.993-0.631-6.839-11.021-6.931-11.07c-2.579,1.176-11.988,4.861-13.042,5.773
		c0.854,1.871,2.15,9.57,3.271,17.849h16.7h16.701c1.12-8.276,2.417-15.978,3.271-17.849c-1.055-0.912-10.463-4.6-13.043-5.773
		C57.233,73.955,58.387,84.345,50.393,84.976z"/>
	<path fill="#F5C084" d="M63.345,46.777c-0.692,3.938,1.643,7.216,5.217,7.922c3.574,0.705,7.03-1.428,7.723-5.366
		c0.691-3.938-1.643-7.702-5.217-8.408C67.495,40.218,64.038,42.837,63.345,46.777z"/>
	<path fill="#F5C084" d="M38.41,46.777c0.692,3.938-1.642,7.216-5.216,7.922c-3.574,0.705-7.03-1.428-7.722-5.366
		c-0.693-3.938,1.641-7.702,5.215-8.408C34.262,40.22,37.719,42.837,38.41,46.777z"/>
	<path fill="#F8CA97" d="M68.712,23.331c-3.49-4.74-8.934-7.853-14.708-8.082c-0.001,0-0.114-0.005-0.3-0.013l0.007-0.227
		c0,0-1.4,0.057-2.849,0.113c-1.445-0.059-2.847-0.113-2.847-0.113l0.006,0.227c-0.187,0.008-0.299,0.013-0.299,0.013
		c-5.778,0.229-11.218,3.342-14.708,8.082c-3.492,4.745-3.956,10.721-3.682,16.442c0.208,4.324,0.975,11.306,1.188,15.632
		c5.553,20.771,35.503,21.11,40.68,0c0.215-4.326,0.979-11.308,1.188-15.632C72.667,34.049,72.204,28.075,68.712,23.331z"/>
	<path fill="#983A23" d="M33.181,31.293c-0.276,0.599,1.31-5.401,4.79-5.505c3.642-0.107,26.279,1.27,27.438-0.247
		c3.836,4.854,6.638,24.106,6.854,24.063c0.51-0.101,0.569-1.986,0.62-2.392c0.366-2.839,0.465-5.751,0.463-8.608
		c-0.006-5.276,1.527-15.438-8.021-21.771c-5.871-3.896-18.013-4.282-24.77-2.077c-4.707,1.536-9.22,5.537-10.897,10.198
		c-1.841,5.118-1.795,9.118-1.188,19.255c0.064,1.1,0.193,2.201,0.348,3.291c0.102,0.727,0.194,1.468,0.371,2.18
		C30.146,53.543,30.237,35.855,33.181,31.293z"/>
	<path fill="#3E3C3B" d="M39.93,49.95c0.921,0,1.672-0.752,1.672-1.675c0-0.922-0.751-1.672-1.672-1.672
		c-0.922,0-1.673,0.75-1.673,1.672C38.258,49.198,39.009,49.95,39.93,49.95z"/>
	<path fill="#3E3C3B" d="M61.799,50.064c0.921,0,1.673-0.752,1.673-1.674c0-0.92-0.752-1.673-1.673-1.673s-1.673,0.753-1.673,1.673
		C60.126,49.312,60.878,50.064,61.799,50.064z"/>
	<path fill="#983A23" d="M34.172,43.642c-0.611-0.881,2.244-1.543,5.179-1.752c4.918-0.349,7.736,1.85,5.366,1.932
		C42.945,43.881,34.351,43.9,34.172,43.642z"/>
	<path fill="#983A23" d="M66.579,43.689c0.646-0.856-2.183-1.629-5.104-1.951c-4.899-0.541-7.803,1.545-5.438,1.72
		C57.804,43.586,66.391,43.941,66.579,43.689z"/>
	<path fill="#D6825C" d="M56.402,60.194c-1.021,5.749-10.288,5.749-11.31,0C47.855,60.83,53.023,60.834,56.402,60.194z"/>
	<path fill="#E5B27E" d="M47.142,56.813c-0.021-0.006-0.022-0.021-0.006-0.051c0-0.084,0.047-0.166,0.136-0.243
		c0.688-1.322,2.04-5.185,2.659-9.429c0.679,0.042-0.673,7.227-1.255,8.941c0.588-0.104,1.306-0.163,2.08-0.163
		c2.001,0,3.622,0.4,3.622,0.896s-1.621,0.896-3.622,0.896C48.826,57.656,47.247,57.283,47.142,56.813z"/>
	<path fill="#983A23" d="M32.978,28.292c-0.386-2.271-2.272-2.399-1.929-5.058c0.343-2.658,4.328-7.844,6.515-9.943
		s4.756-2.786,4.756-2.786s-1.457,2.356-0.855,1.759c0.6-0.601,3.6-2.017,4.886-2.83s1.886-1.672,1.714-1.242
		c-0.172,0.429-0.985,1.971-0.386,1.586c0.6-0.387,2.187-0.43,4.071-2.314s3.085-4.371,2.914-3.941
		c-0.172,0.428,2.699,3.813,3.643,5.527c0.942,1.715,1.071,2.742,1.286,2.271c0.214-0.473,1.071-2.229,1.071-2.229
		s3.515,3.085,4.886,4.972c1.371,1.886,1.672,3.215,1.843,2.742c0.171-0.472,0.516-1.629,0.516-1.629s1.843,4.586,1.327,6.9
		c-0.514,2.313-1.596,5.183-1.596,5.183s-12.547,3.218-17.004,3.261c-2.11,0.021-15.637-3.707-15.899-4.758L32.978,28.292z"/>
	<path fill="#D99E68" d="M50.394,84.976c-7.994-0.632-6.839-11.021-6.932-11.07c-0.021,0.01-0.043,0.021-0.064,0.028
		c-0.511,0.23-1.264,0.553-2.155,0.926c-0.006,0.188-0.009,0.376-0.009,0.564c0,0.008,0,0.018,0,0.024
		c0.006,3.698,1.238,7.009,3.177,9.229c1.566,1.793,3.595,2.874,5.811,2.874c3.099,0,5.832-2.118,7.447-5.341
		c0.792-1.577,1.313-3.422,1.479-5.411c0.037-0.451,0.058-0.91,0.058-1.376c0-0.052,0-0.102,0-0.151
		c-0.002-0.188-0.008-0.376-0.016-0.563c-0.735-0.309-1.356-0.574-1.801-0.774c-0.021-0.01-0.044-0.021-0.064-0.028
		C57.233,73.956,58.387,84.344,50.394,84.976z"/>
	<path fill="#35343D" d="M50.394,84.976c-7.994-0.632-6.839-11.021-6.932-11.07c-0.021,0.01-0.043,0.021-0.064,0.028
		c-0.511,0.23-1.264,0.553-2.155,0.926c-0.006,0.188-0.009,0.376-0.009,0.564c0,0.008,0,0.018,0,0.024
		c0.006,3.698,1.238,7.009,3.177,9.229c1.566,1.793,3.595,2.874,5.811,2.874c3.099,0,5.832-2.118,7.447-5.341
		c0.792-1.577,1.313-3.422,1.479-5.411c0.037-0.451,0.058-0.91,0.058-1.376c0-0.052,0-0.102,0-0.151l-0.016-0.563
		c-0.735-0.309-1.356-0.574-1.801-0.774c-0.021-0.01-0.044-0.021-0.064-0.028C57.233,73.956,58.387,84.344,50.394,84.976z"/>
</g>
</svg>
