<?xml version="1.0" encoding="utf-8"?>
<!-- Generator: Adobe Illustrator 16.0.3, SVG Export Plug-In . SVG Version: 6.00 Build 0)  -->
<!DOCTYPE svg PUBLIC "-//W3C//DTD SVG 1.1//EN" "http://www.w3.org/Graphics/SVG/1.1/DTD/svg11.dtd">
<svg version="1.1" id="Layer_1" xmlns="http://www.w3.org/2000/svg" xmlns:xlink="http://www.w3.org/1999/xlink" x="0px" y="0px"
	 width="100.8px" height="101px" viewBox="0 0 100.8 101" enable-background="new 0 0 100.8 101" xml:space="preserve">
<g>
	<path fill="#D44127" d="M41.254,80.516c-0.46-0.347-10.773-5.2-10.773-5.2c-4.59,1.515-5.62,11.823-6.087,17.896h10.969
		L41.254,80.516z"/>
	<path fill="#D44127" d="M59.531,80.516c0.462-0.347,10.774-5.2,10.774-5.2c4.591,1.515,5.62,11.823,6.087,17.896H65.424
		L59.531,80.516z"/>
	<path fill="#F4B67E" d="M50.394,64.016h-4.841v3.057c0.003,1.898-0.313,1.505-2.089,2.49c0,0-7.076,5.903-7.598,6.07
		c2.151,6.926,7.284,8.155,11.489,14.402l2.922,0.923l3.097-0.461c4.205-6.247,10.55-6.255,12.7-13.18
		c-0.521-0.166-8.753-7.757-8.753-7.757c-1.772-0.985-2.091-0.592-2.087-2.49v-3.057L50.394,64.016L50.394,64.016z"/>
	<path fill="#E34126" d="M43.462,69.588c-2.58,1.177-11.987,4.862-13.042,5.775c0.854,1.871,2.15,9.569,3.271,17.847h16.701h16.701
		c1.121-8.275,2.416-15.976,3.271-17.847c-1.054-0.913-10.463-4.601-13.043-5.775c1.498,7.109-0.005,13.793-6.769,13.818
		C43.722,83.433,42.156,75.777,43.462,69.588z"/>
	<path fill="#F5C084" d="M63.346,41.904c-0.693,3.606,1.641,6.611,5.216,7.258c3.573,0.646,7.03-1.309,7.723-4.915
		c0.691-3.606-1.643-7.056-5.216-7.703C67.494,35.898,64.037,38.297,63.346,41.904z"/>
	<path fill="#F5C084" d="M38.409,41.904c0.693,3.606-1.642,6.611-5.216,7.258s-7.031-1.309-7.722-4.915
		c-0.693-3.606,1.642-7.056,5.215-7.703C34.261,35.898,37.719,38.297,38.409,41.904z"/>
	<path fill="#F8CA97" d="M68.711,19.014c-3.489-4.74-8.932-7.854-14.707-8.084c-0.002,0-0.114-0.004-0.302-0.012l0.009-0.227
		c0,0-1.4,0.057-2.849,0.113c-1.445-0.057-2.847-0.113-2.847-0.113l0.006,0.227c-0.187,0.008-0.299,0.012-0.299,0.012
		c-5.778,0.23-11.219,3.344-14.708,8.084c-3.493,4.744-3.957,10.721-3.682,16.442c0.708,14.704,2.021,31.173,21.59,31.336
		c19.627,0.164,20.76-16.735,21.466-31.336C72.666,29.734,72.203,23.759,68.711,19.014z"/>
	<path fill="#EC8023" d="M30.414,39.907c0.26-5.419,0.328-15.222,5.074-15.222c3.516,0,9.667,2.176,15.332,2.467
		c5.33-0.342,12.007-2.735,15.542-2.735c3.788,0,4.729,5.106,4.803,12.187c0.015,1.461,0.114,2.92,0.197,4.375
		c0.05,0.855,0.11,1.709,0.154,2.563c0.018,0.349,0.105,1.276,0.556,1.188c0.505-0.099,0.563-1.978,0.613-2.377
		c0.361-2.826,0.457-5.723,0.455-8.564c-0.004-3.883-0.102-9.906-3.481-15.596c-1.188-2.004-1.979-4.42-4.431-6.06
		c-5.792-3.875-17.77-4.259-24.435-2.067c-4.645,1.529-9.096,5.51-10.752,10.146c-1.815,5.093-1.77,9.07-1.171,19.153
		c0.064,1.094,0.191,2.189,0.344,3.273c0.099,0.721,0.19,1.459,0.364,2.166c0.38,1.543,0.907,0.441,0.893-0.518
		C30.446,42.824,30.344,41.373,30.414,39.907z"/>
	<path fill="#EC8023" d="M28.812,37.225c-0.642-6.84-1.967-24.67,3.161-27.317c2.181-1.126,13.579-2.226,18.958-2.109h0.001
		c5.38-0.116,16.778,0.983,18.96,2.109c5.127,2.647,3.801,20.478,3.16,27.317c0,0-2.648-10.844-5.59-15.229
		c-2.941-4.387-14.709-2.193-16.499-1.385c-0.012,0.005-0.021,0.007-0.031,0.011l0,0l0,0l0,0l0,0
		c-0.01-0.004-0.021-0.006-0.031-0.011c-1.791-0.809-13.557-3.002-16.499,1.385C31.46,26.381,28.812,37.225,28.812,37.225z"/>
	<g>
		<circle fill="#3E3C3B" cx="39.929" cy="41.948" r="1.674"/>
		<circle fill="#3E3C3B" cx="61.799" cy="41.948" r="1.674"/>
	</g>
	<path fill="#D6825C" d="M43.359,53.605c2.605,1.883,5.269,2.784,7.93,2.7c2.661,0.084,5.321-0.817,7.931-2.7
		C61.309,62.545,41.266,62.545,43.359,53.605z"/>
	<path fill="#E5B27E" d="M47.23,51.898c-0.021-0.006-0.022-0.021-0.006-0.051c0-0.084,0.048-0.166,0.137-0.244
		c0.688-1.322,2.04-5.183,2.659-9.428c0.679,0.042-0.673,7.227-1.255,8.94c0.588-0.103,1.306-0.163,2.081-0.163
		c1.999,0,3.62,0.4,3.62,0.895s-1.621,0.896-3.62,0.896C48.913,52.742,47.335,52.369,47.23,51.898z"/>
	<path fill="#EC8023" d="M34.838,36.758c-0.542-0.927,2.357-1.363,5.299-1.343c4.93,0.036,7.568,2.446,5.198,2.343
		C43.565,37.682,34.995,37.029,34.838,36.758z"/>
	<path fill="#EC8023" d="M67.334,36.698c0.56-0.916-2.33-1.411-5.271-1.447c-4.93-0.062-7.615,2.295-5.244,2.239
		C58.59,37.448,67.17,36.967,67.334,36.698z"/>
</g>
</svg>
