<?xml version="1.0" encoding="utf-8"?>
<!-- Generator: Adobe Illustrator 16.0.3, SVG Export Plug-In . SVG Version: 6.00 Build 0)  -->
<!DOCTYPE svg PUBLIC "-//W3C//DTD SVG 1.1//EN" "http://www.w3.org/Graphics/SVG/1.1/DTD/svg11.dtd">
<svg version="1.1" id="Layer_1" xmlns="http://www.w3.org/2000/svg" xmlns:xlink="http://www.w3.org/1999/xlink" x="0px" y="0px"
	 width="100.8px" height="101px" viewBox="0 0 100.8 101" enable-background="new 0 0 100.8 101" xml:space="preserve">
<g>
	<path fill="#4A2014" d="M29.424,37.665c0.114,1.153,2.669,11.081,1.803,18.353c-0.865,7.271-2.566,14.28-2.566,14.28
		c15.955,3.331,25.964,1.433,41.52-1.02c0,0,1.013-4.735-0.88-13.729c-1.892-8.996,2.413-19.271,2.413-19.271L29.424,37.665z"/>
	<path fill="#4A2014" d="M60.011,13.124C90.741,7.868,61.655,55.692,77.883,68c2.313,1.754-10.553,9.478-15.352,1.521
		c-3.009-4.987,6.827-14.102,7.462-26.929s-3.889-17.243-6.646-22.087C60.588,15.663,60.011,13.124,60.011,13.124z"/>
	<path fill="#4A2014" d="M64.233,15.029c0.826,7.271-1.107,8.156-6.969,12.037c-5.858,3.879-8.394,3.881-7.442,3.404
		c0.949-0.475,5.465-8.313,5.465-8.313s-6.099,4.909-12.273,7.364c-6.176,2.455-8.395,1.504-8.395,1.504s5.464-7.127,4.751-6.572
		c-0.712,0.554-5.938,3.959-6.65,5.543c-0.712,1.583-2.234,8.703-1.363,16.542s9.092,22.757,4.42,25.845
		c-6.283,4.152-14.299-3.523-12.992-3.854c9.77-2.479,4.542-40.239,4.866-42.49c0.832-5.771,4.087-9.97,7.725-12.869
		C43.16,6.962,63.335,7.136,64.233,15.029z"/>
	<path fill="#DF3127" d="M59.613,79.521c0.463-0.348,10.48-7.912,10.48-7.912c4.591,1.514,5.915,14.534,6.382,20.604H65.506
		L59.613,79.521z"/>
	<path fill="#F4B67E" d="M50.212,63.021h-4.841v3.056c0.003,1.898-0.313,1.505-2.089,2.491c0,0-1.711,1.402-2.23,1.568
		c2.15,6.926,3.706,15.83,7.911,22.077h1.249h1.249c4.205-6.247,5.76-15.151,7.911-22.077c-0.521-0.165-2.232-1.568-2.232-1.568
		c-1.771-0.986-2.09-0.593-2.087-2.491v-3.056H50.212z"/>
	<path fill="#DF3127" d="M41.073,79.521c-0.462-0.348-10.479-7.912-10.479-7.912c-4.591,1.514-5.915,14.534-6.383,20.604h10.969
		L41.073,79.521z"/>
	<path fill="#E53B27" d="M43.281,68.594c-2.58,1.178-11.481,2.218-12.536,3.129c0.855,1.871,6.204,10.832,2.768,20.493h16.7h0.131
		h0.132h16.7c-1.477-10.469,2.501-18.499,3.354-20.37c-1.054-0.912-10.6-1.932-13.18-3.105c3.128,2.428-2.51,9.898-7.139,10.224
		C45.567,78.635,40.196,70.988,43.281,68.594z"/>
	<g>
		<path fill="#F5C084" d="M35.984,39.158c0.803,3.605-0.792,6.609-3.522,7.257c-2.73,0.646-5.563-1.308-6.363-4.915
			s0.761-7.057,3.491-7.703C32.319,33.15,35.182,35.55,35.984,39.158z"/>
		<path fill="#F5C084" d="M65.506,39.158c-0.804,3.605,0.792,6.609,3.521,7.257c2.731,0.646,5.563-1.308,6.363-4.915
			c0.803-3.607-0.76-7.057-3.491-7.703C69.172,33.15,66.309,35.55,65.506,39.158z"/>
	</g>
	<path fill="#F8CA97" d="M50.745,9.809l-0.063,0.002c-1.445-0.058-2.847-0.112-2.847-0.112l0.006,0.226
		c-0.187,0.008-0.299,0.012-0.299,0.012c-5.777,0.23-11.22,3.342-14.708,8.084c-3.492,4.744-3.956,10.721-3.683,16.442
		c0.708,14.704,8.944,31.214,21.592,31.336c12.646-0.122,20.882-16.632,21.59-31.336c0.272-5.723-0.188-11.698-3.683-16.442
		c-3.487-4.74-8.93-7.854-14.707-8.084c0,0-0.112-0.004-0.3-0.012l0.007-0.226c0,0-1.399,0.055-2.848,0.112L50.745,9.809z"/>
	<path fill="#4A2014" d="M40.461,10.951c0.168-0.588,8.212-1.713,8.973-1.76c4.489-0.277,10.344,0.645,13.156,2.192
		s6.692,5.539,7.271,7.04c0.577,1.5,0.462,1.616-6.692,6.578c-7.155,4.962-17.888,7.238-15.118,6.348s5.015-5.464,5.015-5.464
		s-1.896,2.232-11.362,5.579c-9.463,3.348-11.947,2.299-11.947,2.299s-3.019-4.455-1.368-9.892c1.648-5.438,3.016-5.86,6.161-9.026
		C37.691,11.682,40.461,10.951,40.461,10.951z"/>
	<path fill="#4A2014" d="M59.733,15.507c-0.174,0.808-0.02,5.138,4.962,11.771c4.981,6.636,5.366,7.214,5.366,7.214
		s0.149,12.146,0.207,11.627c0.059-0.521,2.667-12.587,2.667-12.587s0.704-5.157-0.564-10.35c-1.27-5.193-2.87-7.152-5.071-8.027
		C65.096,14.279,59.733,15.507,59.733,15.507z"/>
	<path fill="#4A2014" d="M31.976,29.529c-0.865,0.98-3.517,3.246-3.517,3.246l2.859,13.438L31.976,29.529z"/>
	<path fill="#E53B27" d="M32.879,71.073c-1.175,0.271-2.043,0.529-2.321,0.771c5.24,9.949-2.497,13.941,0.354,20.37h19.702h0.133
		h0.131h19.7c2.854-6.429-4.887-10.421,0.354-20.37c-0.279-0.241-1.146-0.5-2.322-0.771c-1.286,6.605-8.795,11.678-17.863,11.678
		C41.674,82.751,34.165,77.682,32.879,71.073z"/>
	<path fill="#F0EFEF" d="M50.212,78.962c-3.176-0.224-6.691-3.868-7.611-6.917c-0.426-1.41-0.295-2.691,0.681-3.451
		c-0.021,0.012-0.042,0.021-0.063,0.029c-0.2,0.088-0.437,0.174-0.7,0.261c-1.23,0.532-3.59,1.673-4.371,2.875
		c-0.204,0.313-0.3,0.632-0.24,0.946c0.375,1.961,3.405,2.021,3.405,2.021s-0.174,0.809,0.058,2.278
		c0.436,2.77,1.531,4.243,2.941,4.664C46.025,82.18,48.202,81.135,50.212,78.962z"/>
	<path fill="#F0EFEF" d="M50.212,78.962c3.176-0.224,6.688-3.868,7.608-6.917c0.428-1.41,0.294-2.719-0.683-3.477
		c0.239,0.107,0.521,0.232,0.767,0.313c1.231,0.532,3.593,1.674,4.371,2.875c0.204,0.313,0.302,0.633,0.24,0.946
		c-0.375,1.961-3.404,2.021-3.404,2.021s0.174,0.809-0.058,2.278c-0.436,2.77-1.532,4.243-2.942,4.664
		C54.399,82.18,52.222,81.135,50.212,78.962z"/>
	<path fill="#3E3C3B" d="M49.6,40.407c0.38-0.125,0.763-0.177,1.146-0.153c0.384-0.023,0.765,0.027,1.145,0.153
		c0.416,0.137,0.688,0.491,0.829,1.02c0.161,0.597,0.313,1.197,0.484,1.788c0.352,1.212,0.774,2.375,1.396,3.396
		c1.019,1.677,2.677,1.902,4.186,2.095c3.005,0.381,5.287,0.425,8.272-0.291c0.407-0.099,0.801-0.263,1.185-0.468
		c0.566-0.307,0.999-0.815,1.308-1.516c0.324-0.738,0.574-1.522,0.813-2.313c0.173-0.569,0.34-1.142,0.511-1.711
		c0.108-0.369,0.271-0.693,0.482-0.978c0.166-0.224,0.352-0.565,0.494-0.828c0.104-0.188,0.152-0.403,0.163-0.631
		c0.036-0.787,0.076-1.609,0.089-2.396c0.034-2.116-9.692-1.75-10.823-1.701c-0.513,0.022-1.022,0.056-1.535,0.101
		c-1.502,0.133-3.933,0.41-5.363,0.933c-0.634,0.229-2.792,0.92-3.632,0.842c-0.842,0.079-2.998-0.61-3.632-0.842
		c-1.436-0.522-3.865-0.8-5.367-0.933c-0.512-0.045-1.022-0.078-1.534-0.101c-1.13-0.05-10.858-0.415-10.824,1.701
		c0.014,0.786,0.053,1.608,0.09,2.396c0.011,0.228,0.06,0.443,0.162,0.631c0.145,0.263,0.328,0.604,0.495,0.828
		c0.211,0.283,0.373,0.607,0.482,0.978c0.171,0.569,0.337,1.142,0.511,1.711c0.238,0.791,0.488,1.575,0.813,2.313
		c0.307,0.7,0.738,1.209,1.306,1.516c0.384,0.205,0.777,0.371,1.185,0.468c2.984,0.716,5.271,0.672,8.273,0.291
		c1.508-0.19,3.168-0.418,4.186-2.095c0.619-1.021,1.044-2.185,1.396-3.396c0.171-0.591,0.321-1.191,0.482-1.788
		C48.914,40.898,49.184,40.544,49.6,40.407L49.6,40.407z M53.829,39.014L53.829,39.014c0.164-0.512,0.467-0.832,0.846-1.033
		c1.337-0.711,3.282-1.004,4.717-1.164c2.593-0.285,5.273-0.278,7.865-0.049c0.581,0.051,1.938,0.311,2.438,0.734
		c0.373,0.316,0.515,0.793,0.54,1.352c0.069,1.414-0.192,3.1-0.452,4.479c-0.179,0.939-0.646,2.54-1.136,3.285
		c-0.365,0.561-0.852,0.857-1.373,1.063c-0.286,0.112-0.58,0.19-0.873,0.268c-2.51,0.65-4.919,0.547-7.44,0.15
		c-0.57-0.09-1.138-0.219-1.702-0.351c-0.948-0.222-1.528-0.626-2.09-1.545c-0.649-1.063-1.143-2.943-1.333-4.261
		c-0.093-0.637-0.161-1.275-0.146-1.928C53.703,39.671,53.727,39.333,53.829,39.014L53.829,39.014z M47.662,39.014L47.662,39.014
		c0.102,0.319,0.127,0.657,0.136,1c0.018,0.65-0.05,1.291-0.144,1.928c-0.191,1.316-0.686,3.197-1.334,4.26
		c-0.563,0.919-1.142,1.324-2.091,1.545c-0.565,0.132-1.132,0.261-1.701,0.352c-2.522,0.396-4.933,0.5-7.441-0.151
		c-0.293-0.076-0.588-0.155-0.873-0.267c-0.521-0.205-1.009-0.502-1.374-1.063c-0.486-0.745-0.957-2.345-1.135-3.285
		c-0.26-1.379-0.522-3.063-0.453-4.479c0.026-0.558,0.167-1.035,0.539-1.351c0.503-0.424,1.859-0.685,2.441-0.735
		c2.591-0.229,5.271-0.235,7.864,0.051c1.436,0.158,3.381,0.451,4.718,1.164C47.195,38.182,47.497,38.502,47.662,39.014z"/>
	<path fill="#4A2014" d="M33.981,35.411c-0.991,0.411,0.656-2.274,5.529-2.382c5.68-0.123,7.408,2.609,5.17,1.824
		C39.852,33.161,35.552,34.76,33.981,35.411z"/>
	<g>
		<path fill="#3E3C3B" d="M39.739,42.516c0.922,0,1.674-0.752,1.674-1.674c0-0.921-0.752-1.673-1.674-1.673
			s-1.674,0.752-1.674,1.673C38.065,41.764,38.817,42.516,39.739,42.516z"/>
		<path fill="#3E3C3B" d="M61.751,42.516c0.922,0,1.674-0.752,1.674-1.674c0-0.921-0.752-1.673-1.674-1.673
			c-0.921,0-1.674,0.752-1.674,1.673C60.077,41.764,60.83,42.516,61.751,42.516z"/>
	</g>
	<path fill="#4A2014" d="M68.487,35.411c0.991,0.411-0.654-2.274-5.527-2.382c-5.682-0.123-7.408,2.609-5.17,1.824
		C62.616,33.161,66.914,34.76,68.487,35.411z"/>
	<path fill="#D6825C" d="M55.441,55.421c0.071,0.315,0.108,0.644,0.108,0.979c0,2.416-1.939,4.374-4.333,4.374
		c-2.395,0-4.334-1.958-4.334-4.374c0-0.338,0.038-0.663,0.109-0.979H55.441z"/>
	<path fill="#E5B27E" d="M47.601,51.217c-0.02-0.007-0.021-0.021-0.006-0.051c0-0.086,0.048-0.167,0.137-0.244
		c0.688-1.324,2.039-5.183,2.659-9.428c0.679,0.042-0.674,7.225-1.256,8.939c0.589-0.104,1.307-0.162,2.081-0.162
		c2,0,3.621,0.399,3.621,0.896c0,0.493-1.621,0.896-3.621,0.896C49.286,52.061,47.707,51.688,47.601,51.217z"/>
</g>
</svg>
