<?xml version="1.0" encoding="utf-8"?>
<!-- Generator: Adobe Illustrator 16.0.3, SVG Export Plug-In . SVG Version: 6.00 Build 0)  -->
<!DOCTYPE svg PUBLIC "-//W3C//DTD SVG 1.1//EN" "http://www.w3.org/Graphics/SVG/1.1/DTD/svg11.dtd">
<svg version="1.1" id="Layer_1" xmlns="http://www.w3.org/2000/svg" xmlns:xlink="http://www.w3.org/1999/xlink" x="0px" y="0px"
	 width="100.8px" height="101px" viewBox="0 0 100.8 101" enable-background="new 0 0 100.8 101" xml:space="preserve">
<g>
	<path fill="#BD6C4F" d="M51.369,20.164c5.049,0,9.168-3.266,9.168-7.271c0-4.004-4.119-7.271-9.168-7.271
		c-5.053,0-9.172,3.267-9.172,7.271C42.199,16.896,46.319,20.164,51.369,20.164z"/>
	<path fill="#F4B67E" d="M59.67,82.684c0.461-0.346,10.479-7.912,10.479-7.912c4.592,1.516,5.916,14.534,6.383,20.606H65.563
		L59.67,82.684z"/>
	<path fill="#F4B67E" d="M50.27,66.183h-4.842v3.058c0.004,1.898-0.313,1.506-2.088,2.491c0,0-1.711,1.402-2.231,1.569
		c2.151,6.925-6.738,15.83-2.533,22.077H50.27h11.402c4.205-6.247-3.129-14.979-2.242-22.077c-0.521-0.167-2.232-1.569-2.232-1.569
		c-1.773-0.985-2.09-0.593-2.088-2.491v-3.058H50.27z"/>
	<path fill="#F4B67E" d="M41.132,82.684c-0.461-0.346-10.479-7.912-10.479-7.912c-4.591,1.516-5.915,14.534-6.383,20.606h10.969
		L41.132,82.684z"/>
	<path fill="#A44760" d="M43.342,71.73c-3.184,1.449-11.314,1.659-13.154,3.237c0.463,1.013,1.105,4.511,1.751,8.781
		c-0.653,4.358-3.206,7.488-1.37,11.628h3.001h16.7h0.131h0.133h16.699h3.002c1.836-4.14-0.717-7.27-1.369-11.628
		c0.645-4.271,1.279-7.773,1.742-8.785c-1.254-1.09-12.146-2.66-13.408-3.233C65.391,96.287,34.022,95.378,43.342,71.73z"/>
	<g>
		<path fill="#F5C084" d="M36.04,44.167c0.805,3.606-0.792,6.608-3.521,7.258c-2.73,0.646-5.563-1.308-6.363-4.916
			c-0.802-3.606,0.761-7.056,3.491-7.702C32.375,38.159,35.239,40.559,36.04,44.167z"/>
		<path fill="#F5C084" d="M65.563,44.167c-0.803,3.606,0.793,6.608,3.523,7.258c2.73,0.646,5.563-1.308,6.361-4.916
			c0.805-3.606-0.76-7.056-3.488-7.702C69.229,38.159,66.365,40.559,65.563,44.167z"/>
	</g>
	<path fill="#F8CA97" d="M50.803,12.973l-0.063,0.002c-1.445-0.059-2.848-0.113-2.848-0.113l0.006,0.226
		c-0.186,0.007-0.297,0.013-0.297,0.013c-5.779,0.229-11.22,3.342-14.708,8.082c-3.492,4.745-3.956,10.721-3.682,16.443
		c0.708,14.705,8.942,31.214,21.589,31.336c12.646-0.122,20.883-16.632,21.592-31.336c0.273-5.723-0.189-11.698-3.682-16.443
		c-3.488-4.74-8.932-7.853-14.709-8.082c0,0-0.111-0.006-0.299-0.013l0.006-0.226c0,0-1.398,0.056-2.848,0.113L50.803,12.973z"/>
	<path fill="#A95C40" d="M60.373,19.156c-0.176,0.808-0.021,5.137,4.961,11.771c4.98,6.636,5.367,7.214,5.367,7.214
		s-0.016,10.517,0.043,9.998c0.059-0.521,2.254-10.555,2.254-10.555s1.279-5.561,0.012-10.753c-1.271-5.194-2.871-7.151-5.072-8.026
		C65.737,17.928,60.373,19.156,60.373,19.156z"/>
	<path fill="#A95C40" d="M32.033,32.691c-0.864,0.98-2.969,6.302-2.969,6.302l1.862,9.092L32.033,32.691z"/>
	<path fill="#A95C40" d="M70.701,38.141c0.227-3.791,1.588-12.936,0.635-15.298c-2.748-6.813-7.783-9.571-16.236-10.417
		c-2.598-0.259-4.762-0.029-4.762-0.029C55.19,20.402,59.867,31.523,70.701,38.141z"/>
	<path fill="#A95C40" d="M61.967,20.73c-1.713,10.69-24.271,7.244-31.692,20.104c-1.575,2.73-8.16-28.286,20.637-28.482
		L61.967,20.73z"/>
	<path fill="#3E3C3B" d="M40.866,47.257c0.921,0,1.673-0.751,1.673-1.673s-0.752-1.674-1.673-1.674
		c-0.921,0-1.673,0.752-1.673,1.674C39.194,46.506,39.946,47.257,40.866,47.257z"/>
	<circle fill="#3E3C3B" cx="60.737" cy="45.584" r="1.674"/>
	<path fill="#E5B27E" d="M47.121,54.063c-0.021-0.007-0.023-0.021-0.008-0.051c0-0.085,0.049-0.166,0.139-0.244
		c0.688-1.322,2.039-5.183,2.658-9.428c0.68,0.042-0.674,7.225-1.256,8.939c0.59-0.104,1.307-0.161,2.08-0.161
		c2,0,3.621,0.398,3.621,0.895s-1.621,0.896-3.621,0.896C48.805,54.906,47.227,54.532,47.121,54.063z"/>
	<path fill="#923F22" d="M54.744,41.297c-0.99,0.411,0.656-2.275,5.529-2.382c5.682-0.124,7.408,2.608,5.17,1.824
		C60.617,39.047,56.317,40.645,54.744,41.297z"/>
	<path fill="#923F22" d="M46.86,41.297c0.99,0.411-0.656-2.275-5.529-2.381c-5.681-0.124-7.407,2.607-5.171,1.822
		C40.988,39.047,45.287,40.645,46.86,41.297z"/>
	<path fill="#D6825C" d="M54.85,58.951c-0.746,4.188-7.496,4.188-8.24,0C48.623,59.414,52.387,59.417,54.85,58.951z"/>
</g>
</svg>
