<?xml version="1.0" encoding="utf-8"?>
<!-- Generator: Adobe Illustrator 16.0.3, SVG Export Plug-In . SVG Version: 6.00 Build 0)  -->
<!DOCTYPE svg PUBLIC "-//W3C//DTD SVG 1.1//EN" "http://www.w3.org/Graphics/SVG/1.1/DTD/svg11.dtd">
<svg version="1.1" id="Layer_1" xmlns="http://www.w3.org/2000/svg" xmlns:xlink="http://www.w3.org/1999/xlink" x="0px" y="0px"
	 width="100.8px" height="101px" viewBox="0 0 100.8 101" enable-background="new 0 0 100.8 101" xml:space="preserve">
<g>
	<path fill="#E7A225" d="M42.754,80.943c-0.461-0.347-10.774-5.201-10.774-5.201c-4.591,1.516-5.62,11.823-6.088,17.896h10.969
		L42.754,80.943z"/>
	<path fill="#E7A225" d="M61.031,80.943c0.462-0.347,10.773-5.201,10.773-5.201c4.592,1.516,5.621,11.823,6.088,17.896H66.925
		L61.031,80.943z"/>
	<path fill="#F4B67E" d="M51.893,64.442h-4.841V67.5c0.003,1.898-0.313,1.505-2.088,2.49c0,0-1.711,1.402-2.232,1.569
		c2.151,6.926,3.708,15.83,7.913,22.077h1.248h1.249c4.205-6.247,5.761-15.151,7.911-22.077c-0.521-0.167-2.232-1.569-2.232-1.569
		c-1.771-0.985-2.09-0.592-2.087-2.49v-3.058H51.893z"/>
	<path fill="#F2AB1D" d="M44.962,70.016c-2.58,1.177-11.989,4.862-13.042,5.775c0.854,1.869,2.15,9.569,3.271,17.847h16.701h16.701
		c1.121-8.275,2.416-15.978,3.271-17.847c-1.055-0.913-10.463-4.601-13.043-5.775C60.446,80.361,43.052,79.092,44.962,70.016z"/>
	<path fill="#F5C084" d="M64.845,41.718c-0.692,3.606,1.642,6.609,5.217,7.257c3.573,0.646,7.03-1.308,7.723-4.914
		c0.69-3.606-1.644-7.057-5.216-7.703C68.994,35.709,65.537,38.107,64.845,41.718z"/>
	<path fill="#F5C084" d="M39.908,41.718c0.692,3.606-1.642,6.609-5.216,7.257c-3.573,0.646-7.03-1.308-7.722-4.914
		c-0.692-3.606,1.642-7.057,5.216-7.703C35.761,35.709,39.218,38.107,39.908,41.718z"/>
	<path fill="#F8CA97" d="M70.211,19.441c-3.489-4.74-8.933-7.854-14.708-8.084c-0.001,0-0.113-0.004-0.301-0.012l0.008-0.226
		c0,0-1.4,0.056-2.849,0.112c-1.443-0.058-2.846-0.112-2.846-0.112l0.006,0.226c-0.186,0.008-0.299,0.012-0.299,0.012
		c-5.779,0.229-11.22,3.343-14.708,8.084c-3.492,4.744-3.956,10.721-3.681,16.442c0.708,14.705,2.022,31.172,21.591,31.336
		c19.627,0.164,20.759-16.735,21.466-31.336C74.166,30.163,73.703,24.186,70.211,19.441z"/>
	<path fill="#D6825C" d="M56.437,52.398c0.071,0.314,0.108,0.644,0.108,0.979c0,2.416-1.939,4.374-4.334,4.374
		s-4.334-1.958-4.334-4.374c0-0.337,0.038-0.664,0.108-0.979H56.437z"/>
	<path fill="#A84226" d="M31.912,40.334c0.26-5.419,0.328-15.223,5.074-15.223c0.121,0,14.415-5.922,30.873-5.922
		c3.789,0,4.729,10.761,4.805,17.842c0.014,1.459,0.113,2.919,0.195,4.375c0.051,0.855,0.111,1.708,0.155,2.563
		c0.017,0.348,0.105,1.276,0.556,1.188c0.505-0.099,0.563-1.976,0.613-2.378c0.361-2.824,0.457-5.721,0.455-8.563
		c-0.004-3.883-0.103-9.905-3.482-15.596c-1.188-2.003-1.979-4.419-4.43-6.06c-5.792-3.873-17.479-2.181-24.146,0.012
		c-4.644,1.527-9.384,3.431-11.04,8.066c-1.816,5.092-1.77,9.069-1.171,19.153c0.065,1.094,0.191,2.188,0.344,3.272
		c0.098,0.721,0.19,1.461,0.364,2.168c0.38,1.541,0.907,0.44,0.892-0.519C31.946,43.251,31.844,41.801,31.912,40.334z"/>
	<path fill="#A84226" d="M69.237,14.447c-0.632-14.5-28.746-2.361-32.331-1.706c-8.937,1.634-12.583-4.118-12.583-4.118
		c-5.734,16.363,5.982,30.046,31.874,12.889c4.753-3.148,10.408-1.09,10.408-1.09c4.604,6.003,6.577,6.993,7.521,15.258
		c0,0,0.688-5.761,1.886-11.755C77.264,17.661,74.44,13.739,69.237,14.447z"/>
	<path fill="#A84226" d="M31.078,45.232c0,0.636,2.581,12.871,4.351,15.182c1.769,2.308,7.773,5.771,8.777,6.001
		c0.792,0.182,6.048,1.046,8.231,1.401c2.188-0.355,7.441-1.222,8.232-1.401c1.004-0.23,7.125-3.982,8.777-6.001
		c1.653-2.021,5.188-16.854,4.234-15.9c-3.578,7.151-4.12,17.458-18.541,17.458c-0.711,0-2.131-1.106-2.705-1.58
		c-0.572,0.474-1.992,1.58-2.704,1.58C35.314,61.971,34.657,52.385,31.078,45.232z"/>
	<path fill="#A84226" d="M39.655,53.752c4.016,2.233,11.904,0.555,12.683-0.979c0.775,1.531,8.666,3.212,12.68,0.979
		c-6.313-1.258-9.526-4.145-12.68-3.166C49.184,49.609,45.97,52.496,39.655,53.752z"/>
	<path fill="#ED8423" d="M37.428,73.243c0.115,0.403,0.843,20.396,0.843,20.396h4.01l-1.46-21.867L37.428,73.243z"/>
	<path fill="#ED8423" d="M66.511,73.243c-0.115,0.403-0.843,20.396-0.843,20.396h-4.014l1.462-21.867L66.511,73.243z"/>
	<g>
		<circle fill="#3E3C3B" cx="41.428" cy="43.02" r="1.674"/>
		<circle fill="#3E3C3B" cx="63.299" cy="43.02" r="1.674"/>
	</g>
	<g>
		<path fill="#EC8023" d="M36.113,37.889c-0.541-0.928,2.358-1.365,5.298-1.344c4.933,0.036,7.569,2.446,5.199,2.344
			C44.841,38.811,36.271,38.16,36.113,37.889z"/>
		<path fill="#EC8023" d="M68.61,38.1c0.562-0.916-2.33-1.412-5.271-1.447c-4.933-0.063-7.616,2.295-5.245,2.238
			C59.865,38.85,68.446,38.368,68.61,38.1z"/>
	</g>
	<path fill="#E5B27E" d="M48.776,49.443c-0.02-0.008-0.021-0.022-0.006-0.051c0-0.086,0.048-0.166,0.137-0.244
		c0.688-1.323,2.04-5.184,2.66-9.428c0.679,0.041-0.674,7.225-1.256,8.938c0.588-0.103,1.308-0.161,2.08-0.161
		c2,0,3.621,0.398,3.621,0.895s-1.621,0.896-3.621,0.896C50.46,50.287,48.883,49.912,48.776,49.443z"/>
</g>
</svg>
