<?xml version="1.0" encoding="utf-8"?>
<!-- Generator: Adobe Illustrator 16.0.3, SVG Export Plug-In . SVG Version: 6.00 Build 0)  -->
<!DOCTYPE svg PUBLIC "-//W3C//DTD SVG 1.1//EN" "http://www.w3.org/Graphics/SVG/1.1/DTD/svg11.dtd">
<svg version="1.1" id="Layer_1" xmlns="http://www.w3.org/2000/svg" xmlns:xlink="http://www.w3.org/1999/xlink" x="0px" y="0px"
	 width="100.8px" height="101px" viewBox="0 0 100.8 101" enable-background="new 0 0 100.8 101" xml:space="preserve">
<g>
	<polygon fill="#1F8FC1" points="43.832,70.182 43.692,65.598 58.166,65.596 58.03,70.038 	"/>
	<path fill="#0995D3" d="M41.262,79.618c-0.461-0.347-10.774-5.201-10.774-5.201c-4.591,1.515-5.621,11.824-6.088,17.896h10.969
		L41.262,79.618z"/>
	<path fill="#0995D3" d="M59.539,79.618c0.461-0.347,10.773-5.201,10.773-5.201c4.59,1.515,5.619,11.824,6.088,17.896H65.432
		L59.539,79.618z"/>
	<path fill="#F4B67E" d="M50.401,63.118h-4.84v3.056c0.002,1.899-0.313,1.505-2.088,2.491c0,0-1.711,1.403-2.232,1.569
		c2.15,6.926,3.879,14.155,8.086,20.403h1.248h1.248c4.205-6.248,5.588-13.479,7.738-20.403c-0.521-0.165-2.23-1.569-2.23-1.569
		c-1.773-0.986-2.092-0.592-2.09-2.491v-3.056H50.401z"/>
	<path fill="#128BCC" d="M50.832,79.935c0,0-1.51-1.991-2.203-3.12c-2.105-3.414-5.092-8.084-5.158-8.123
		c-2.582,1.177-11.99,4.861-13.042,5.774c0.854,1.871,2.149,9.57,3.271,17.848h16.7H67.1c1.121-8.275,2.418-15.977,3.271-17.848
		c-1.055-0.913-10.461-4.6-13.041-5.774c-0.064,0.036-1.934,4.849-4.102,8.121C52.33,78.169,50.832,79.935,50.832,79.935z"/>
	<path fill="#057BB5" d="M45.885,72.868c0.26,0,1.719,0.229,1.719,0.229l1.025,3.714l-3.668-1.693L45.885,72.868z"/>
	<path fill="#2CA4DD" d="M43.692,65.598l3.912,7.502c0,0-4.027,3.952-3.969,3.778c0.057-0.172-1.809-7.164-1.668-7.535
		C42.106,68.974,43.692,65.598,43.692,65.598z"/>
	<path fill="#057BB5" d="M55.973,72.866c-0.26,0-1.719,0.229-1.719,0.229l-1.023,3.714l3.666-1.692L55.973,72.866z"/>
	<path fill="#2CA4DD" d="M58.166,65.596l-3.912,7.502c0,0,4.025,3.952,3.971,3.779c-0.059-0.173,1.807-7.165,1.668-7.536
		C59.752,68.972,58.166,65.596,58.166,65.596z"/>
	<path fill="#F5C084" d="M62.881,40.847c-0.691,3.606,1.643,6.61,5.219,7.258c3.572,0.646,7.029-1.308,7.721-4.916
		c0.693-3.605-1.641-7.056-5.215-7.703C67.033,34.839,63.574,37.239,62.881,40.847z"/>
	<path fill="#F5C084" d="M37.947,40.847c0.692,3.606-1.642,6.61-5.217,7.258c-3.573,0.646-7.03-1.308-7.722-4.916
		c-0.693-3.605,1.642-7.056,5.215-7.703C33.799,34.84,37.256,37.239,37.947,40.847z"/>
	<path fill="#F8CA97" d="M68.248,17.956c-3.49-4.74-8.932-7.853-14.709-8.083c0,0-0.113-0.005-0.301-0.012l0.008-0.227
		c0,0-1.398,0.057-2.848,0.113c-1.445-0.059-2.846-0.113-2.846-0.113l0.006,0.227c-0.186,0.007-0.299,0.012-0.299,0.012
		c-5.777,0.229-11.22,3.342-14.708,8.083c-3.492,4.745-3.956,10.721-3.682,16.442c0.708,14.705,2.022,31.173,21.59,31.336
		c19.627,0.164,20.76-16.736,21.467-31.336C72.203,28.676,71.74,22.701,68.248,17.956z"/>
	<path fill="#BE9140" d="M31.007,39.133c0.26-5.419,0.329-15.222,5.073-15.222c0.121,0,14.417-5.924,30.875-5.924
		c3.789,0,4.729,10.762,4.801,17.843c0.059,6.099-1.086,8.912-0.645,9.103c0.518,0.221,2.627-3.318,2.621-11.918
		c-0.004-3.883-0.102-9.904-3.482-15.597c-1.188-2.002-1.979-4.419-4.43-6.06c-5.793-3.873-18.174-2.988-24.839-0.797
		c-18.438,6.069-11.879,34.293-11.283,34.237C30.423,44.73,30.97,39.881,31.007,39.133z"/>
	<path fill="#BE9140" d="M52.698,14.832c2.309-0.115,13.605,2.916,13.605,2.916c-8.436,8.386-22.131,14.009-34.034,11.799
		c0,0,5.424-3.462,5.02-3.115c-0.402,0.346-5.04,1.353-6.636,1.153s-1.518-0.778-1.518-0.778
		C38.381,18.284,38.139,18.366,52.698,14.832z"/>
	<path fill="#3E3C3B" d="M47.856,36.99c-0.186-0.213-0.73-0.879-1.564-1.18c-3.92-1.412-14.755-0.826-17.637-0.106
		c-0.371,0.093-0.411,0.08-0.45,0.332c-0.04,0.252-0.054,1.737,0.065,1.962c0.12,0.225,0.69,0.318,1.193,1.061
		c0.902,1.332,0.841,6.164,2.998,8.453c2.233,2.371,10.704,2.459,12.995-0.699c1.514-2.086,2.264-4.406,3.074-6.64
		c0.49-0.504,0.916-0.544,1.301-0.597c0.238-0.033,0.445-0.041,0.568-0.041c0.125,0,0.332,0.008,0.57,0.041
		c0.385,0.053,0.809,0.093,1.301,0.597c0.813,2.231,1.563,4.554,3.074,6.64c2.291,3.158,10.762,3.069,12.994,0.699
		c2.158-2.289,2.096-7.121,2.998-8.453c0.504-0.742,1.074-0.834,1.191-1.061c0.119-0.227,0.105-1.71,0.066-1.962
		s-0.08-0.239-0.451-0.332c-2.881-0.72-13.717-1.306-17.637,0.106c-0.834,0.301-1.379,0.967-1.563,1.18
		c-0.326,0.126-0.857,0.186-2.547,0.148C48.715,37.175,48.182,37.116,47.856,36.99L47.856,36.99z M68.209,36.472L68.209,36.472
		c0,0,0.994,0.08,1.418,1.168c0.426,1.086,0.238,3.566,0.016,4.786c-0.227,1.22-0.758,3.13-1.514,4.071
		c-2.338,2.913-10.08,2.566-12.01,0.059c-1.484-1.932-4.021-7.668-0.918-9.301C57.86,35.855,65.498,35.568,68.209,36.472
		L68.209,36.472z M32.593,36.472L32.593,36.472c2.711-0.904,10.349-0.617,13.009,0.783c3.104,1.633,0.564,7.369-0.92,9.301
		c-1.93,2.508-9.671,2.854-12.009-0.059c-0.757-0.941-1.286-2.852-1.513-4.071c-0.226-1.22-0.411-3.7,0.015-4.786
		C31.596,36.552,32.593,36.472,32.593,36.472z"/>
	<g>
		<path fill="#3E3C3B" d="M39.467,43.793c0.922,0,1.673-0.751,1.673-1.673c0-0.921-0.751-1.673-1.673-1.673
			s-1.675,0.752-1.675,1.673C37.791,43.042,38.545,43.793,39.467,43.793z"/>
		<path fill="#3E3C3B" d="M61.336,43.793c0.922,0,1.672-0.751,1.672-1.673c0-0.921-0.75-1.673-1.672-1.673s-1.674,0.752-1.674,1.673
			S60.414,43.793,61.336,43.793z"/>
	</g>
	<path fill="#D6825C" d="M58.451,54.353c-1.537,1.969-4.359,3.286-7.59,3.286s-6.053-1.317-7.59-3.284
		c1.873,1.354,4.492,2.724,7.504,2.724C53.785,57.077,56.578,55.708,58.451,54.353z"/>
	<path fill="#E5B27E" d="M47.03,52.069c-0.02-0.008-0.023-0.021-0.006-0.051c0-0.086,0.047-0.168,0.137-0.244
		c0.688-1.322,2.039-5.183,2.658-9.427c0.68,0.041-0.674,7.227-1.256,8.939c0.59-0.104,1.307-0.163,2.082-0.163
		c1.998,0,3.619,0.399,3.619,0.896c0,0.492-1.621,0.896-3.619,0.896C48.715,52.914,47.137,52.54,47.03,52.069z"/>
	<path fill="#BE9140" d="M33.553,33.568c-0.541-0.928,2.357-1.364,5.299-1.344c4.931,0.037,7.57,2.446,5.199,2.344
		C42.28,34.491,33.713,33.839,33.553,33.568z"/>
	<path fill="#BE9140" d="M67.082,33.453c0.541-0.928-2.357-1.364-5.301-1.344c-4.93,0.037-7.566,2.447-5.197,2.344
		C58.354,34.375,66.924,33.724,67.082,33.453z"/>
</g>
</svg>
