<?xml version="1.0" encoding="utf-8"?>
<!-- Generator: Adobe Illustrator 16.0.3, SVG Export Plug-In . SVG Version: 6.00 Build 0)  -->
<!DOCTYPE svg PUBLIC "-//W3C//DTD SVG 1.1//EN" "http://www.w3.org/Graphics/SVG/1.1/DTD/svg11.dtd">
<svg version="1.1" id="Layer_1" xmlns="http://www.w3.org/2000/svg" xmlns:xlink="http://www.w3.org/1999/xlink" x="0px" y="0px"
	 width="100.8px" height="101px" viewBox="0 0 100.8 101" enable-background="new 0 0 100.8 101" xml:space="preserve">
<g>
	<path fill-rule="evenodd" clip-rule="evenodd" fill="#3E3B3A" d="M50.908,82.188c6.32,0,11.477-7.459,11.477-16.604
		c0-9.146-5.156-16.604-11.477-16.604c-6.322,0-11.478,7.459-11.478,16.604C39.43,74.729,44.586,82.188,50.908,82.188z"/>
	<path fill-rule="evenodd" clip-rule="evenodd" fill="#487D72" d="M59.669,80.299c0.461-0.346,10.48-7.913,10.48-7.913
		c4.59,1.515,5.914,14.535,6.381,20.607H65.564L59.669,80.299z"/>
	<path fill-rule="evenodd" clip-rule="evenodd" fill="#F5B67E" d="M50.269,63.798h-4.841v3.057c0.003,1.604-7.311,3.68-8.829,4.164
		c-4.542,7.906,8.678,12.496,12.883,18.743h1.249h1.248c4.205-6.247,16.045-10.491,12.223-18.743
		c-1.518-0.484-9.094-2.56-9.092-4.164v-3.057H50.269z"/>
	<path fill-rule="evenodd" clip-rule="evenodd" fill="#487D72" d="M40.055,81.272c-0.462-0.346-9.404-8.887-9.404-8.887
		c-4.591,1.515-5.916,14.535-6.382,20.607h10.969L40.055,81.272z"/>
	<path fill-rule="evenodd" clip-rule="evenodd" fill="#448A7C" d="M36.599,71.019c-1.47,0.287-2.914,0.565-4.064,0.832l-0.055,0.013
		l-0.055,0.013l-0.054,0.013l-0.053,0.013l-0.053,0.013l-0.053,0.013l-0.104,0.025l-0.051,0.013l-0.051,0.013l-0.05,0.012
		l-0.002,0.001l-0.047,0.012l-0.049,0.013l-0.048,0.013l-0.048,0.013l-0.047,0.012l-0.047,0.013l-0.125,0.034l-0.012,0.003
		l-0.044,0.013l-0.044,0.012L31.4,72.139l-0.043,0.012l-0.042,0.013l-0.041,0.012l-0.034,0.011l-0.007,0.002l-0.04,0.013
		l-0.04,0.012l-0.038,0.012h-0.001l-0.038,0.013l-0.075,0.023l-0.027,0.01l-0.009,0.003l-0.105,0.036l-0.018,0.006l-0.016,0.006
		l-0.065,0.023l-0.032,0.012l-0.028,0.011l-0.08,0.032l-0.025,0.011c-0.03,0.013-0.059,0.025-0.087,0.038l-0.003,0.001l-0.003,0.002
		c-0.029,0.014-0.057,0.027-0.083,0.041l-0.005,0.003c-0.024,0.013-0.048,0.024-0.069,0.037l-0.008,0.005l-0.004,0.003
		c-0.021,0.013-0.042,0.025-0.06,0.038l-0.004,0.002l-0.002,0.002c-0.02,0.014-0.038,0.028-0.053,0.042
		c0.462,1.012,1.079,4.471,1.725,8.742c-0.653,4.358-3.206,7.488-1.37,11.628h3h16.7H50.4h0.131h16.701h3
		c1.836-4.14-0.717-7.27-1.369-11.628c0.646-4.271,1.262-7.73,1.725-8.742c-0.016-0.015-0.033-0.027-0.053-0.042l-0.002-0.002
		l-0.004-0.002c-0.02-0.013-0.039-0.025-0.061-0.038l-0.004-0.003l-0.008-0.005c-0.021-0.013-0.045-0.024-0.068-0.037l-0.006-0.003
		c-0.027-0.014-0.055-0.027-0.084-0.041l-0.004-0.002l-0.004-0.001l-0.086-0.038l-0.025-0.011l-0.08-0.032l-0.027-0.011
		l-0.031-0.012l-0.066-0.023l-0.016-0.006l-0.018-0.006l-0.105-0.036l-0.01-0.003L69.8,72.26l-0.076-0.023l-0.037-0.013h-0.002
		l-0.037-0.012L69.607,72.2l-0.039-0.013l-0.008-0.002l-0.033-0.011l-0.041-0.012l-0.043-0.013L69.4,72.139l-0.043-0.013
		l-0.045-0.012l-0.043-0.013l-0.012-0.003l-0.127-0.034l-0.045-0.013l-0.049-0.012l-0.047-0.013l-0.049-0.013l-0.049-0.013
		l-0.047-0.012l-0.002-0.001l-0.051-0.012l-0.051-0.013l-0.051-0.013l-0.104-0.025l-0.053-0.013l-0.053-0.013l-0.053-0.013
		l-0.055-0.013l-0.055-0.013l-0.055-0.013c-1.15-0.267-2.594-0.545-4.064-0.832c0.145,0.593,0.221,1.202,0.221,1.825
		c0,5.673-6.277,10.271-14.021,10.271c-7.744,0-14.022-4.599-14.022-10.271C36.378,72.221,36.454,71.61,36.599,71.019z"/>
	<g>
		<path fill-rule="evenodd" clip-rule="evenodd" fill="#F6C085" d="M36.041,41.166c0.803,3.606-0.792,6.61-3.523,7.258
			c-2.731,0.646-5.561-1.309-6.363-4.915c-0.803-3.606,0.76-7.056,3.491-7.702C32.375,35.159,35.239,37.558,36.041,41.166z"/>
		<path fill-rule="evenodd" clip-rule="evenodd" fill="#F6C085" d="M65.562,41.166c-0.801,3.606,0.793,6.61,3.523,7.258
			c2.732,0.646,5.563-1.309,6.363-4.915c0.803-3.606-0.76-7.056-3.49-7.702C69.228,35.159,66.365,37.558,65.562,41.166z"/>
	</g>
	<path fill-rule="evenodd" clip-rule="evenodd" fill="#F8C997" d="M50.802,10.587L50.74,10.59c-1.447-0.059-2.847-0.113-2.847-0.113
		l0.006,0.226c-0.186,0.008-0.298,0.012-0.298,0.012c-5.778,0.23-11.219,3.343-14.708,8.083c-3.492,4.745-3.956,10.721-3.681,16.443
		c0.708,14.704,8.944,31.214,21.59,31.336c12.645-0.122,20.881-16.632,21.59-31.336c0.275-5.723-0.189-11.698-3.682-16.443
		c-3.488-4.74-8.93-7.853-14.707-8.083c0,0-0.113-0.004-0.299-0.012l0.006-0.226c0,0-1.4,0.055-2.847,0.113L50.802,10.587z"/>
	<path fill-rule="evenodd" clip-rule="evenodd" fill="#3E3B3A" d="M59.789,16.284c-0.174,0.808-0.018,5.137,4.963,11.771
		s5.365,7.214,5.365,7.214s-0.01,11.509,0.654,10.095c0.662-1.414,1.967-10.096,1.99-10.623c0.023-0.526,0.934-5.589-0.336-10.782
		s-2.871-7.151-5.072-8.026C65.152,15.057,59.789,16.284,59.789,16.284z"/>
	<path fill-rule="evenodd" clip-rule="evenodd" fill="#3E3B3A" d="M32.033,30.307c-0.866,0.98-3.658,3.324-3.658,3.324
		c0.829,3.945,1.542,11.236,2.486,11.834C31.258,44.394,31.629,37.197,32.033,30.307z"/>
	<path fill-rule="evenodd" clip-rule="evenodd" fill="#3E3B3A" d="M70.117,35.27c0.227-3.792,2.172-12.448,1.219-14.812
		c-2.748-6.813-7.783-9.572-16.236-10.417c-2.598-0.26-4.76-0.029-4.76-0.029C55.189,18.017,59.283,28.652,70.117,35.27z"/>
	<path fill-rule="evenodd" clip-rule="evenodd" fill="#3E3B3A" d="M61.966,18.345c-1.713,10.691-24.27,7.245-31.692,20.104
		c-8.27-12.504,4.394-38.117,26.434-28.218L61.966,18.345z"/>
	<g>
		<path fill-rule="evenodd" clip-rule="evenodd" fill="#3E3B3A" d="M39.867,43.945c0.922,0,1.673-0.751,1.673-1.673
			s-0.751-1.674-1.673-1.674c-0.921,0-1.673,0.752-1.673,1.674S38.945,43.945,39.867,43.945z"/>
		<circle fill-rule="evenodd" clip-rule="evenodd" fill="#3E3B3A" cx="61.736" cy="42.272" r="1.673"/>
	</g>
	<path fill-rule="evenodd" clip-rule="evenodd" fill="#E5B17D" d="M47.344,50.751c-0.02-0.007-0.023-0.023-0.006-0.051
		c0-0.085,0.048-0.167,0.137-0.244c0.687-1.323,2.04-5.183,2.66-9.428c0.678,0.042-0.674,7.225-1.256,8.939
		c0.589-0.103,1.306-0.162,2.08-0.162c2,0,3.621,0.4,3.621,0.895s-1.621,0.894-3.621,0.894
		C49.029,51.594,47.451,51.221,47.344,50.751z"/>
	<path fill-rule="evenodd" clip-rule="evenodd" fill="#3E3B3A" d="M55.703,35.95c-0.99,0.41,0.658-2.275,5.529-2.382
		c5.682-0.124,7.41,2.608,5.172,1.823C61.576,33.699,57.275,35.298,55.703,35.95z"/>
	<path fill-rule="evenodd" clip-rule="evenodd" fill="#3E3B3A" d="M45.897,35.95c0.991,0.41-0.657-2.275-5.529-2.382
		c-5.68-0.124-7.409,2.608-5.17,1.823C40.026,33.699,44.325,35.298,45.897,35.95z"/>
	<path fill-rule="evenodd" clip-rule="evenodd" fill="#5A5858" d="M66.076,37.071c2.375,0.25,3.25,1.302,3.131,3.745
		c-0.24,4.894-1.836,7.555-6.787,8.258c-4.609,0.654-7.332-1.336-8.225-6.215c-0.297-1.618-0.182-3.521,1.381-4.443
		C58.105,36.922,63.064,36.755,66.076,37.071L66.076,37.071z M35.577,37.071L35.577,37.071c-2.377,0.25-3.251,1.302-3.132,3.745
		c0.24,4.894,1.837,7.555,6.786,8.258c4.609,0.654,7.333-1.336,8.226-6.215c0.296-1.618,0.18-3.521-1.381-4.443
		C43.545,36.922,38.587,36.755,35.577,37.071L35.577,37.071z M48.847,38.843L48.847,38.843c-0.275-0.044-0.494-0.144-0.637-0.419
		c-0.264-0.508-0.679-0.87-1.179-1.157c-2.226-1.277-8.709-1.46-11.242-1.46c0,0-2.279,0.038-3.38,0.086
		c-0.901,0.038-1.631,0.139-2.495,0.324c-0.171,0.103-0.227,0.287-0.22,0.507c0.023,0.756,0.05,1.512,0.142,2.263
		c0.016,0.131,0.07,0.244,0.194,0.308c0.519,0.262,0.74,0.711,0.846,1.262c0.433,2.242,1.041,4.532,2.329,6.451
		c0.655,0.975,1.563,1.625,2.631,2.084c2.801,1.202,7.017,1.426,9.576-0.588c1.253-0.985,2.247-3.19,2.731-4.656
		c0.277-0.839,0.534-1.684,0.717-2.549c0.039-0.184,0.064-0.372,0.084-0.56c0.028-0.267,0.122-0.367,0.397-0.352
		c1.287,0.075,1.682,0.075,2.969,0c0.275-0.016,0.369,0.085,0.396,0.352c0.021,0.188,0.047,0.376,0.086,0.56
		c0.182,0.865,0.439,1.71,0.717,2.549c0.484,1.466,1.479,3.671,2.73,4.656c2.561,2.014,6.775,1.79,9.576,0.588
		c1.068-0.459,1.977-1.109,2.631-2.084c1.289-1.919,1.896-4.209,2.328-6.451c0.107-0.551,0.328-1,0.848-1.262
		c0.123-0.063,0.178-0.177,0.193-0.308c0.092-0.751,0.119-1.507,0.143-2.263c0.006-0.22-0.049-0.404-0.221-0.507
		c-0.865-0.186-1.594-0.286-2.494-0.324c-1.102-0.048-3.381-0.086-3.381-0.086c-2.533,0-9.016,0.183-11.242,1.46
		c-0.5,0.287-0.914,0.649-1.178,1.157c-0.145,0.275-0.363,0.375-0.639,0.419C51.49,39.055,50.161,39.055,48.847,38.843z"/>
	<path fill-rule="evenodd" clip-rule="evenodd" fill="#D6825B" d="M57.951,54.574c-1.537,1.967-4.359,3.285-7.588,3.285
		c-3.229,0-6.052-1.318-7.589-3.284c1.873,1.354,4.493,2.723,7.502,2.723C53.285,57.298,56.078,55.929,57.951,54.574z"/>
</g>
</svg>
