<?xml version="1.0" encoding="utf-8"?>
<!-- Generator: Adobe Illustrator 16.0.3, SVG Export Plug-In . SVG Version: 6.00 Build 0)  -->
<!DOCTYPE svg PUBLIC "-//W3C//DTD SVG 1.1//EN" "http://www.w3.org/Graphics/SVG/1.1/DTD/svg11.dtd">
<svg version="1.1" id="Layer_1" xmlns="http://www.w3.org/2000/svg" xmlns:xlink="http://www.w3.org/1999/xlink" x="0px" y="0px"
	 width="100.8px" height="101px" viewBox="0 0 100.8 101" enable-background="new 0 0 100.8 101" xml:space="preserve">
<g>
	<path fill="#953E23" stroke="#231815" stroke-width="0.5669" stroke-miterlimit="22.9256" d="M72.754,50.839
		c-0.231,2.425-8.784,20.493-8.784,20.493L43.528,70.92c0,0-12.782-9.348-13.705-16.271s-0.398-13.396-0.398-13.396L72.487,40.2
		L72.754,50.839z"/>
	<path fill="#CFACCA" d="M64.073,85.322c0.462-0.347,6.613-12.472,6.613-12.472c4.591,1.515,5.916,14.535,6.383,20.605H66.101
		L64.073,85.322z"/>
	<path fill="#F5C084" d="M50.807,64.264h-4.841v3.056c0.006,3.623-9.626,3.955-12.894,4.998c0.882,7.559,7.896,13.104,18.217,20.159
		h1.248h1.249c4.204-6.245,14.771-10.063,15.018-20.159c-3.313-1.06-13.161-1.332-13.155-4.998v-3.056H50.807z"/>
	<path fill="#CFACCA" d="M38.148,83.938c-0.461-0.346-6.959-11.086-6.959-11.086c-4.591,1.515-5.916,14.535-6.382,20.605h10.969
		L38.148,83.938z"/>
	<path fill="#D8B3D1" d="M33.073,72.316c-1.174,0.27-2.043,0.528-2.322,0.77c5.24,9.949-2.496,13.941,0.355,20.371h19.701h0.131
		h0.131H70.77c2.854-6.43-4.886-10.422,0.355-20.371c-0.278-0.24-1.147-0.5-2.322-0.77c-1.287,6.604-8.795,11.678-17.865,11.678
		C41.866,83.994,34.359,78.924,33.073,72.316z"/>
	<path fill="#F8CA97" d="M51.339,11.051l-0.063,0.004c-1.444-0.059-2.847-0.113-2.847-0.113l0.006,0.226
		c-0.186,0.008-0.298,0.013-0.298,0.013c-5.778,0.229-11.219,3.342-14.708,8.082c-3.492,4.745-3.956,10.721-3.682,16.443
		c0.708,14.704,8.944,31.213,21.591,31.336c12.646-0.123,20.883-16.632,21.59-31.336c0.274-5.723-0.188-11.698-3.682-16.443
		c-3.488-4.74-8.931-7.853-14.707-8.082c0,0-0.113-0.005-0.301-0.013l0.008-0.226c0,0-1.4,0.056-2.848,0.113L51.339,11.051z"/>
	<path fill="#CD5928" d="M66.42,38.04c0.99,0.411-0.657-2.274-5.529-2.381c-5.681-0.124-7.409,2.608-5.171,1.823
		C60.548,35.79,64.848,37.389,66.42,38.04z"/>
	<circle fill="#3E3C3B" cx="41.956" cy="41.657" r="1.673"/>
	<path fill="#3E3C3B" d="M60.827,43.331c0.923,0,1.675-0.752,1.675-1.673c0-0.922-0.752-1.674-1.675-1.674s-1.675,0.752-1.675,1.674
		C59.154,42.579,59.906,43.331,60.827,43.331z"/>
	<path fill="#D6825C" d="M44.746,55.221c4.084,2.199,8.787,2.199,12.872,0C56.605,61.727,45.846,61.525,44.746,55.221z"/>
	<path fill="#E5B27E" d="M47.562,51.666c-0.019-0.006-0.021-0.021-0.005-0.051c0-0.084,0.047-0.166,0.136-0.244
		c0.688-1.321,2.04-5.182,2.659-9.428c0.679,0.041-0.673,7.226-1.255,8.938c0.588-0.103,1.306-0.161,2.081-0.161
		c2,0,3.621,0.398,3.621,0.895s-1.621,0.896-3.621,0.896C49.247,52.509,47.669,52.136,47.562,51.666z"/>
	<path fill="#CD5928" d="M35.969,38.083c-0.991,0.411,0.656-2.274,5.528-2.381c5.682-0.124,7.409,2.608,5.171,1.823
		C41.839,35.833,37.539,37.432,35.969,38.083z"/>
	<path fill="#CD5928" d="M35.985,16.396c7.887,4.658,31.766,12.457,31.067,35.672c0,0,1.674-9.299,1.729-8.862
		c0.061,0.437,1.214,6.174-0.519,14.673c-1.731,8.5-8.771,18.432-8.483,17.994c0.289-0.437,7.677-4.014,12.004-13.924
		c12.568-28.782,2.563-59.84-27.306-53.598C38.065,9.693,33.144,14.718,35.985,16.396z"/>
	<path fill="#CD5928" d="M44.746,19.215c-16.56,8.743-9.923,38.961-3.327,49.109c3.153,4.854,6.389,8.006,5.257,7.035
		c-1.132-0.972-9.302-0.324-18.035-16.822c-7.025-13.27-9.349-46.585,12.455-46.585L44.746,19.215z"/>
	<path fill="#CD5928" d="M29.163,28.691c0.924-0.809,5.434-6.172,5.434-6.172c-4.33,18.17,3.661,33.408,3.627,33.35
		C31.537,44.408,30.581,41.766,29.163,28.691z"/>
</g>
</svg>
