<?xml version="1.0" encoding="utf-8"?>
<!-- Generator: Adobe Illustrator 16.0.3, SVG Export Plug-In . SVG Version: 6.00 Build 0)  -->
<!DOCTYPE svg PUBLIC "-//W3C//DTD SVG 1.1//EN" "http://www.w3.org/Graphics/SVG/1.1/DTD/svg11.dtd">
<svg version="1.1" id="Layer_1" xmlns="http://www.w3.org/2000/svg" xmlns:xlink="http://www.w3.org/1999/xlink" x="0px" y="0px"
	 width="100.8px" height="101px" viewBox="0 0 100.8 101" enable-background="new 0 0 100.8 101" xml:space="preserve">
<g>
	<polygon fill="#7E7974" points="43.67,72.193 43.527,67.609 58.002,67.607 57.866,72.049 	"/>
	<path fill="#807B78" d="M41.098,81.631c-0.462-0.348-10.774-5.203-10.774-5.203c-4.591,1.517-5.621,11.824-6.088,17.896h10.969
		L41.098,81.631z"/>
	<path fill="#807B78" d="M59.375,81.631c0.462-0.348,10.773-5.203,10.773-5.203c4.591,1.517,5.62,11.824,6.088,17.896H65.268
		L59.375,81.631z"/>
	<path fill="#F4B67E" d="M50.237,65.129h-4.842v3.057c0.004,1.898-0.313,1.505-2.087,2.49c0,0-1.711,1.404-2.232,1.57
		c2.151,6.926,3.707,15.83,7.913,22.076h1.248h1.249c4.205-6.246,5.762-15.15,7.912-22.076c-0.521-0.166-2.231-1.57-2.231-1.57
		c-1.773-0.985-2.092-0.592-2.087-2.49v-3.057H50.237z"/>
	<path fill="#867F7A" d="M50.67,81.945c0,0-1.511-1.992-2.206-3.121c-2.104-3.414-5.089-8.084-5.157-8.123
		c-2.581,1.178-11.989,4.863-13.043,5.774c0.854,1.871,2.15,9.57,3.271,17.849h16.701h16.701c1.12-8.275,2.417-15.978,3.271-17.849
		c-1.055-0.911-10.462-4.598-13.042-5.774c-0.063,0.037-1.933,4.85-4.102,8.121C52.166,80.18,50.67,81.945,50.67,81.945z"/>
	<path fill="#F5C084" d="M63.189,43.575c-0.691,3.937,1.643,7.215,5.217,7.922c3.573,0.705,7.03-1.429,7.723-5.365
		c0.691-3.938-1.643-7.702-5.215-8.407C67.34,37.018,63.881,39.635,63.189,43.575z"/>
	<path fill="#F5C084" d="M38.254,43.575c0.691,3.937-1.644,7.215-5.218,7.922c-3.572,0.705-7.029-1.429-7.722-5.365
		c-0.693-3.938,1.642-7.702,5.215-8.407C34.104,37.018,37.561,39.635,38.254,43.575z"/>
	<path fill="#F8CA97" d="M68.555,20.127c-3.489-4.74-8.932-7.854-14.707-8.082c-0.002,0-0.114-0.005-0.301-0.013l0.008-0.226
		c0,0-1.4,0.055-2.848,0.112c-1.446-0.058-2.848-0.112-2.848-0.112l0.007,0.226c-0.188,0.008-0.3,0.013-0.3,0.013
		c-5.779,0.229-11.22,3.342-14.708,8.082c-3.492,4.745-3.956,10.721-3.681,16.443c0.208,4.324,0.974,11.305,1.188,15.631
		c5.554,20.771,35.505,21.112,40.681,0c0.214-4.326,0.979-11.307,1.188-15.631C72.51,30.848,72.047,24.872,68.555,20.127z"/>
	<path fill="#402515" d="M33.023,28.092c-0.275,0.6,1.312-5.4,4.79-5.505c3.643-0.108,26.279,1.269,27.439-0.246
		c3.835,4.854,6.376,24.798,6.595,24.755c1.163-0.226,1.344-10.56,1.344-11.691c-0.007-5.276,1.525-15.438-8.021-21.771
		C59.298,9.739,47.157,9.352,40.4,11.557c-4.707,1.537-9.22,5.537-10.897,10.198c-1.842,5.118-1.796,9.118-1.188,19.255
		c0.065,1.1,0.195,2.201,0.348,3.291c0.103,0.727,0.194,1.469,0.371,2.18C29.989,50.341,30.079,32.654,33.023,28.092z"/>
	<path fill="#402515" d="M31.646,22.725c0.154,0.445,0.736,2.635,8.332,5.207s14.886,2.633,14.334,2.512
		c-0.553-0.123-2.205-1.594-2.205-1.594s5.451,1.776,9.434,1.409c3.981-0.366,6.86-2.634,6.371-2.634c-0.49,0-2.695-0.98-2.695-0.98
		s4.964-2.389,7.842-5.695c2.879-3.309,3.798-6.432,3.431-6.127c-0.366,0.308-2.816,1.531-2.449,1.104
		c0.366-0.428,0.674-5.328,0.674-5.328s-2.145,1.469-2.757,1.592s0.674-4.043,0.674-4.043s-5.88,1.103-9.249,0.611
		c-3.368-0.488-5.269-1.47-10.229-1.715S45.189,8.27,45.189,8.27l0.796-1.594c0,0-6.953,1.99-8.791,3.368
		c-1.837,1.378-3.552,4.165-3.552,4.165s-1.746-0.551-3.154-0.488c-1.409,0.061-2.021,0.396-2.021,0.396l3.185,1.042
		c0,0-1.438,0.397-2.511,1.348s-1.961,2.052-1.501,1.776c0.459-0.275,3.094-0.521,3.094-0.521L31.646,22.725z"/>
	<path fill="#766F6B" d="M45.72,74.879c0.261,0,1.72,0.23,1.72,0.23l1.023,3.715l-3.667-1.693L45.72,74.879z"/>
	<path fill="#9F9993" d="M43.527,67.609l3.913,7.502c0,0-4.028,3.951-3.97,3.778c0.057-0.174-1.809-7.166-1.669-7.536
		C41.941,70.984,43.527,67.609,43.527,67.609z"/>
	<path fill="#766F6B" d="M55.81,74.877c-0.261,0-1.72,0.23-1.72,0.23l-1.023,3.713l3.666-1.691L55.81,74.877z"/>
	<path fill="#9F9993" d="M58.002,67.607l-3.911,7.502c0,0,4.026,3.95,3.97,3.778c-0.058-0.174,1.808-7.166,1.668-7.535
		C59.589,70.982,58.002,67.607,58.002,67.607z"/>
	<path fill="#3E3C3B" d="M31.804,38.018c-0.905,1.008-1.308,1.871-1.623,3.012c0,0-0.832,0.031-1.113,0.275
		c-0.281,0.242-0.287,1.092-0.031,1.277c0.257,0.186,1.094,0.173,1.094,0.173c-0.008,6.003,3.229,10.279,9.402,10.058
		c3.045-0.109,5.448-1.41,7.182-4.373c0.972-1.662,1.662-3.733,1.815-4.809c0.152-1.074,0.279-1.611,0.536-1.765
		c0.207-0.124,1.249-0.14,1.642-0.142c0.394,0.002,1.436,0.018,1.642,0.142c0.256,0.153,0.384,0.69,0.536,1.765
		c0.153,1.075,0.845,3.146,1.815,4.809c1.732,2.963,4.136,4.264,7.182,4.373c6.175,0.223,9.409-4.055,9.403-10.058
		c0,0,0.837,0.013,1.093-0.173s0.249-1.035-0.032-1.277c-0.28-0.244-1.111-0.275-1.111-0.275c-0.315-1.141-0.718-2.004-1.624-3.012
		c-0.842-0.937-2.869-1.627-5.355-1.824c-6.156-0.483-20.434-0.451-26.605-0.063C34.948,36.298,32.704,37.018,31.804,38.018
		L31.804,38.018z M49.041,40.626L49.041,40.626c-0.15,0.116-0.362-0.265-0.383-0.384c-0.21-1.19,0.067-2.899-1.601-3.21h7.297
		c-1.668,0.311-1.39,2.02-1.6,3.21c-0.021,0.119-0.232,0.492-0.384,0.384C52.222,40.518,49.192,40.509,49.041,40.626L49.041,40.626z
		 M54.384,37.846L54.384,37.846c0.794-0.621,2.604-0.857,3.58-0.922c2.766-0.18,9.459-0.318,11.433,2.098
		c0.741,0.908,1.139,1.97,1.188,3.043c0.052,1.074-0.09,2.711-0.41,3.899c-1.166,4.341-4.055,6.354-8.327,6.125
		c-5.666-0.305-8.492-6.497-8.281-11.562C53.617,39.302,53.796,38.305,54.384,37.846L54.384,37.846z M47.031,37.846L47.031,37.846
		c0.59,0.459,0.769,1.456,0.817,2.684c0.211,5.063-2.614,11.256-8.28,11.561c-4.272,0.229-7.162-1.785-8.329-6.125
		c-0.318-1.189-0.46-2.826-0.409-3.9c0.052-1.072,0.447-2.135,1.189-3.043c1.973-2.414,8.667-2.275,11.431-2.097
		C44.428,36.988,46.238,37.225,47.031,37.846z"/>
	<path fill="#5B5959" d="M31.888,38.923c-0.755,0.925-1.158,2.005-1.21,3.099s0.091,2.76,0.416,3.97
		c0.645,2.397,1.806,4.098,3.428,5.112c1.367,0.856,3.061,1.229,5.05,1.121c5.769-0.309,8.645-6.613,8.43-11.766
		c-0.054-1.249-0.234-2.266-0.833-2.732c-0.808-0.631-2.649-0.873-3.646-0.938c-2.282-0.146-7.198-0.27-10.045,1.004
		C32.817,38.089,32.267,38.46,31.888,38.923z"/>
	<path fill="#5B5959" d="M53.471,40.486c-0.214,5.119,2.646,11.382,8.372,11.688c1.98,0.104,3.67-0.266,5.028-1.12
		c1.604-1.011,2.755-2.695,3.395-5.072c0.322-1.201,0.465-2.856,0.414-3.942c-0.054-1.086-0.453-2.159-1.203-3.077
		c-0.374-0.458-0.915-0.824-1.566-1.117c-2.825-1.271-7.721-1.15-9.99-1.003c-0.987,0.063-2.817,0.304-3.62,0.931
		C53.704,38.236,53.523,39.245,53.471,40.486z"/>
	<path fill="#D6825C" d="M59.205,58.074c-1.537,1.967-4.359,3.285-7.589,3.285c-3.23,0-6.054-1.318-7.591-3.285
		c1.874,1.354,4.493,2.725,7.503,2.725C54.539,60.799,57.332,59.428,59.205,58.074z"/>
	<path fill="#E5B27E" d="M47.782,55.789c-0.021-0.006-0.021-0.021-0.006-0.051c0-0.084,0.049-0.166,0.138-0.244
		c0.688-1.322,2.04-5.182,2.658-9.428c0.68,0.041-0.673,7.227-1.256,8.939c0.589-0.104,1.308-0.162,2.081-0.162
		c2,0,3.621,0.4,3.621,0.896s-1.621,0.895-3.621,0.895C49.467,56.633,47.889,56.26,47.782,55.789z"/>
</g>
</svg>
