<?xml version="1.0" encoding="utf-8"?>
<!-- Generator: Adobe Illustrator 16.0.3, SVG Export Plug-In . SVG Version: 6.00 Build 0)  -->
<!DOCTYPE svg PUBLIC "-//W3C//DTD SVG 1.1//EN" "http://www.w3.org/Graphics/SVG/1.1/DTD/svg11.dtd">
<svg version="1.1" id="Layer_1" xmlns="http://www.w3.org/2000/svg" xmlns:xlink="http://www.w3.org/1999/xlink" x="0px" y="0px"
	 width="100.8px" height="101px" viewBox="0 0 100.8 101" enable-background="new 0 0 100.8 101" xml:space="preserve">
<g>
	<path fill="#923F22" d="M29.48,37.665c1.144,11.44-0.062,33.523,8.817,39.499c13.521,9.1,9.847,9.759,22.527,0.421
		c12.678-9.336,11.021-24.58,10.943-41.31L29.48,37.665z"/>
	<path fill="#923F22" d="M61.51,14.395c26.578-5.258,9.494,54.897,6.592,67.52c-1.26,5.477-3.102,4.081-7.898-3.873
		c0,0,9.217-22.617,9.85-35.445c0.635-12.828-3.889-17.244-6.646-22.088C60.647,15.664,61.51,14.395,61.51,14.395z"/>
	<path fill="#923F22" d="M64.289,15.031c0.824,7.271-1.107,8.156-6.969,12.035c-5.859,3.881-8.393,3.881-7.443,3.406
		c0.951-0.476,5.463-8.314,5.463-8.314s-6.096,4.91-12.271,7.363c-6.176,2.455-8.393,1.504-8.393,1.504s5.463-7.125,4.75-6.571
		c-0.712,0.554-5.938,3.959-6.651,5.543C32.062,31.58,30.54,38.7,31.41,46.539c0.583,5.25,11.147,21.675,11.333,29.394
		c0.094,3.896-5.64,9.628-7.329,7.681c-6.85-7.899-8.033-55.324-7.709-57.575c0.832-5.769,4.086-9.97,7.726-12.869
		C43.217,6.962,63.393,7.136,64.289,15.031z"/>
	<path fill="#A9BCC7" d="M59.67,79.521c0.461-0.347,10.479-7.913,10.479-7.913c4.59,1.516,5.914,14.535,6.383,20.606H65.563
		L59.67,79.521z"/>
	<path fill="#99C0D4" d="M42.254,72.774c0.104-0.835,0.727-6.456,0.727-6.456l14.896-0.101l-0.201,4.627L42.254,72.774z"/>
	<path fill="#F4B67E" d="M50.27,63.021h-4.842v3.058c0.004,1.897-0.313,1.505-2.086,2.49c0,0-1.711,1.402-2.233,1.569
		c2.151,6.926,3.708,15.83,7.911,22.077h1.25h1.248c4.205-6.247,5.76-15.151,7.912-22.077c-0.52-0.167-2.232-1.569-2.232-1.569
		c-1.771-0.985-2.09-0.593-2.086-2.49v-3.058H50.27z"/>
	<path fill="#A9BCC7" d="M41.131,79.521c-0.462-0.347-10.48-7.913-10.48-7.913c-4.59,1.516-5.915,14.535-6.382,20.606h10.969
		L41.131,79.521z"/>
	<path fill="#B4CBD7" d="M47.27,75.395c-4.26-1.563-4.793-6.131-3.93-6.801c-2.582,1.176-12.073,2.339-13.126,3.252
		c0.854,1.871,2.234,12.095,3.354,20.37H50.27h0.131h0.131h16.701c1.121-8.275,2.5-18.499,3.355-20.37
		c-1.055-0.913-10.545-2.076-13.127-3.252c0.861,0.67,0.328,5.236-3.932,6.801v0.002l-3.361,11.426L47.27,75.395L47.27,75.395z"/>
	<g>
		<path fill="#F5C084" d="M36.041,41.62c0.803,3.606-0.792,6.61-3.523,7.258c-2.73,0.646-5.562-1.308-6.363-4.916
			c-0.803-3.606,0.76-7.056,3.491-7.702C32.376,35.613,35.238,38.012,36.041,41.62z"/>
		<path fill="#F5C084" d="M65.563,41.62c-0.803,3.606,0.793,6.61,3.523,7.258c2.729,0.646,5.563-1.308,6.361-4.916
			c0.805-3.606-0.76-7.056-3.488-7.702C69.229,35.613,66.365,38.012,65.563,41.62z"/>
	</g>
	<path fill="#F8CA97" d="M50.801,9.811l-0.063,0.002c-1.445-0.059-2.848-0.113-2.848-0.113l0.006,0.226
		c-0.186,0.007-0.299,0.013-0.299,0.013c-5.777,0.229-11.218,3.342-14.708,8.082c-3.492,4.746-3.956,10.722-3.681,16.443
		c0.708,14.705,8.943,31.214,21.589,31.336c12.645-0.122,20.883-16.632,21.592-31.336c0.273-5.722-0.189-11.697-3.684-16.443
		C65.221,13.28,59.778,10.167,54,9.938c0,0-0.113-0.006-0.299-0.013l0.006-0.226c0,0-1.4,0.056-2.848,0.113L50.801,9.811z"/>
	<path fill="#923F22" d="M59.789,15.507c-0.174,0.808-0.02,5.138,4.963,11.771c4.979,6.636,5.365,7.214,5.365,7.214
		c1.418-2.462,0.893-3.647,2.297-0.556c0,0,1.279-5.562,0.012-10.754c-1.27-5.193-2.871-7.152-5.072-8.027
		S59.789,15.507,59.789,15.507z"/>
	<path fill="#923F22" d="M32.033,29.529c-0.865,0.98-4.173-3.598-3.565,1.996c0.605,5.593,1.771,12.142,3.435,16.463
		C31.096,42.577,29.645,36.261,32.033,29.529z"/>
	<path fill="#923F22" d="M71.387,35.011c0.227-3.79,0.9-12.968-0.051-15.329c-2.748-6.813-7.783-9.574-16.236-10.418
		c-2.598-0.259,1.34,4.115,1.34,4.115C63.436,23.288,59.975,30.876,71.387,35.011z"/>
	<path fill="#923F22" d="M61.967,17.568C42.481,20.411,45.121,37.15,29.623,34.705c-0.895-0.143-1.947-4.835-1.947-4.835
		s1.681-7.774,4.717-12.238c3.036-4.463,6.416-5.616,9.809-7.011c3.395-1.395,12.434-2.428,13.973-0.46L61.967,17.568z"/>
	<polygon fill="#ACC4D0" points="46.483,72.787 48.924,73.705 48.379,79.773 45.155,75.917 	"/>
	<polygon fill="#C9E1ED" points="40.727,68.623 42.981,66.318 48.924,73.705 43.24,78.7 	"/>
	<polygon fill="#ACC4D0" points="54.373,72.688 51.932,73.605 52.323,79.502 55.699,75.816 	"/>
	<polygon fill="#C9E1ED" points="60.129,68.522 57.875,66.219 51.932,73.605 57.617,78.6 	"/>
	<path fill="#B4CBD7" d="M32.534,71.074c-1.174,0.271-2.043,0.528-2.321,0.771c5.24,9.949-2.497,13.94,0.354,20.37h19.701h0.131
		h0.131h19.701c2.855-6.43-4.885-10.421,0.355-20.37c-0.279-0.242-1.146-0.5-2.322-0.771c-1.508,7.687-10.021,17.438-18.197,17.442
		C41.881,88.522,34.032,78.772,32.534,71.074z"/>
	<g>
		<circle fill="#3E3C3B" cx="41.867" cy="42.718" r="1.673"/>
		<circle fill="#3E3C3B" cx="60.737" cy="42.718" r="1.674"/>
	</g>
	<path fill="#D6825C" d="M57.266,54.174c-1.02,5.748-10.287,5.748-11.311,0C49.028,58.273,54.196,58.273,57.266,54.174z"/>
	<path fill="#E5B27E" d="M47.834,51.195c-0.021-0.006-0.023-0.021-0.006-0.051c0-0.084,0.047-0.166,0.135-0.244
		c0.688-1.321,2.041-5.183,2.66-9.428c0.678,0.043-0.674,7.227-1.256,8.94c0.588-0.104,1.307-0.163,2.08-0.163
		c2,0,3.621,0.4,3.621,0.895s-1.621,0.896-3.621,0.896C49.518,52.039,47.94,51.666,47.834,51.195z"/>
	<g>
		<path fill="#923F22" d="M55.744,38.432c-0.99,0.41,0.656-2.275,5.529-2.382c5.682-0.124,7.408,2.608,5.17,1.823
			C61.617,36.18,57.317,37.779,55.744,38.432z"/>
		<path fill="#923F22" d="M46.858,38.432c0.992,0.41-0.654-2.275-5.529-2.382c-5.68-0.124-7.408,2.608-5.169,1.824
			C40.987,36.182,45.287,37.779,46.858,38.432z"/>
	</g>
	<path fill="#923F22" d="M69.475,29.759c0.867,0.981,4.174-3.598,3.566,1.996c-0.607,5.595-1.771,12.142-3.436,16.463
		C70.412,42.807,71.864,36.49,69.475,29.759z"/>
</g>
</svg>
